<?xml version="1.0" encoding="utf-8"?>
<!-- Generator: Adobe Illustrator 16.0.0, SVG Export Plug-In . SVG Version: 6.00 Build 0)  -->
<!DOCTYPE svg PUBLIC "-//W3C//DTD SVG 1.1//EN" "http://www.w3.org/Graphics/SVG/1.1/DTD/svg11.dtd" [
	<!ENTITY ns_flows "http://ns.adobe.com/Flows/1.0/">
	<!ENTITY ns_extend "http://ns.adobe.com/Extensibility/1.0/">
	<!ENTITY ns_ai "http://ns.adobe.com/AdobeIllustrator/10.0/">
	<!ENTITY ns_graphs "http://ns.adobe.com/Graphs/1.0/">
	<!ENTITY ns_vars "http://ns.adobe.com/Variables/1.0/">
	<!ENTITY ns_imrep "http://ns.adobe.com/ImageReplacement/1.0/">
	<!ENTITY ns_sfw "http://ns.adobe.com/SaveForWeb/1.0/">
	<!ENTITY ns_custom "http://ns.adobe.com/GenericCustomNamespace/1.0/">
	<!ENTITY ns_adobe_xpath "http://ns.adobe.com/XPath/1.0/">
]>
<svg version="1.1"
	 id="Слой_1" xmlns:x="&ns_extend;" xmlns:i="&ns_ai;" xmlns:graph="&ns_graphs;" xmlns:svgjs="http://svgjs.com/svgjs"
	 xmlns="http://www.w3.org/2000/svg" xmlns:xlink="http://www.w3.org/1999/xlink" xmlns:a="http://ns.adobe.com/AdobeSVGViewerExtensions/3.0/"
	 x="0px" y="0px" width="261.26px" height="152.32px" viewBox="0 0 261.26 152.32" enable-background="new 0 0 261.26 152.32"
	 xml:space="preserve">
<metadata>
	<sfw  xmlns="&ns_sfw;">
		<slices></slices>
		<sliceSourceBounds  y="320.34" x="174.87" height="152.32" width="261.26" bottomLeftOrigin="true"></sliceSourceBounds>
	</sfw>
</metadata>
<g id="SvgjsG1053" transform="translate(-1.1100149154663086,-119.50999450683594)" xmlns:name="main_text">
	<path fill="#553285" d="M6.04,240h4.47l19.87-28.96l2.28-3.811L32.5,213v27h4.46v-38.49H32.5L13.77,228.57l-3.43,5.71l0.17-5.771
		v-27H6.04V240z M54.06,240.49c7.95,0,10.89-4.681,10.89-8.82c0-4.63-3.38-6.75-6.1-7.35c2.61-1.091,4.73-3.591,4.73-7.181
		c0-3.71-2.61-7.52-9.3-7.52c-2.78,0-6.16,0.66-8.61,1.91l1.15,3.21c1.9-0.761,4.08-1.521,6.86-1.521c3.75,0,5.55,1.96,5.55,4.62
		c0,2.45-1.63,5.23-6.21,5.23h-3.1v3.37h3.21c3.92,0,7.35,1.09,7.35,5.01c0,3.76-2.94,5.45-6.53,5.45c-3,0-5.72-0.771-8.17-2.021
		l-1.41,3.43C47.42,239.84,50.74,240.49,54.06,240.49z M73,240h11.33c7.29,0,11.05-3.48,11.05-8.55c0-4.13-2.89-6.69-5.88-7.13
		c2.45-0.92,4.3-3.37,4.3-6.591c0-4.619-3.43-7.449-10.02-7.449H73V240z M77.3,236.46v-10.18h5.17c5.34,0,8.5,1.199,8.5,5.229
		c0,4.13-3.7,4.95-7.62,4.95H77.3z M77.3,223.12v-9.311h5.23c4.3,0,7.02,0.98,7.02,4.471c0,2.939-1.9,4.84-6.2,4.84H77.3z
		 M103.43,240h4.3l14.32-20.2l2.29-3.81l-0.11,3.76V240h4.3v-29.72h-4.3l-14.32,20.25l-2.28,3.81l0.1-3.76v-20.3h-4.3V240z
		 M138.66,240h4.301v-13.07h15.399V240h4.3v-29.72h-4.3v13.01h-15.399v-13.01h-4.301V240z M172.791,240h4.299l14.32-20.2l2.28-3.81
		l-0.11,3.76V240h4.311v-29.72h-4.311l-14.31,20.25l-2.29,3.81l0.109-3.76v-20.3h-4.299V240z M214.6,240h4.239v-26.08h10.131v-3.64
		h-24.5v3.64h10.13V240z M247.48,240.65c4.84,0,8.439-1.03,9.42-1.41l-0.77-3.54c-1.301,0.38-5.17,1.25-7.34,1.25
		c-6.16,0-10.841-1.521-11-11h19.649v-1.57c0-9.86-3.37-14.87-10.72-14.87c-7.461,0-13.291,4.141-13.291,16.17
		C233.429,237.06,238.881,240.65,247.48,240.65z M237.84,222.74c0.551-6.641,3.761-10.011,8.221-10.011
		c4.689,0,6.859,4.021,6.859,10.011H237.84z"/>
</g>
<g id="SvgjsG1054" transform="translate(-0.25999999046325684,-90.03999328613281)" xmlns:name="slogan_text">
	<path fill="#553285" d="M4.15,226.56H4.3c0.727,0,1.427,0.276,2.1,0.83c0.32,0.307,0.513,0.52,0.58,0.64
		c0.16,0.227,0.283,0.437,0.37,0.63c0.087,0.187,0.13,0.32,0.13,0.4c0,0.146-0.094,0.246-0.28,0.3c-0.007,0-0.023,0.003-0.05,0.01
		c-0.173,0-0.297-0.137-0.37-0.41c-0.14-0.313-0.356-0.63-0.65-0.949c-0.587-0.534-1.2-0.801-1.84-0.801H4.17
		c-0.987,0-1.777,0.507-2.37,1.521c-0.593,1.093-0.89,2.543-0.89,4.35v0.4c0,1.887,0.317,3.377,0.95,4.47
		c0.6,0.94,1.37,1.41,2.31,1.41h0.08c0.727,0,1.373-0.3,1.94-0.9c0.387-0.433,0.667-0.933,0.84-1.5c0-0.093,0.07-0.173,0.21-0.239
		c0.04-0.007,0.073-0.011,0.1-0.011h0.02c0.14,0,0.24,0.077,0.3,0.23c0,0.026,0,0.05,0,0.07v0.039
		c-0.006,0.114-0.07,0.304-0.19,0.57c-0.086,0.247-0.263,0.563-0.53,0.95c-0.474,0.64-1.074,1.073-1.8,1.3
		c-0.307,0.087-0.6,0.13-0.88,0.13H4.15c-0.767,0-1.463-0.27-2.09-0.81c-0.606-0.521-1.073-1.333-1.4-2.44
		c-0.267-1.007-0.4-2.093-0.4-3.26v-0.42c0-1.787,0.287-3.264,0.86-4.43c0.153-0.327,0.37-0.657,0.65-0.99
		c0.247-0.254,0.45-0.434,0.61-0.54C2.947,226.743,3.537,226.56,4.15,226.56z M8.46,226.56h7.31c0.107,0,0.197,0.069,0.27,0.21
		c0.007,0.04,0.01,0.063,0.01,0.069v0.08c0,0.12-0.083,0.217-0.25,0.29c-0.073,0-0.126,0-0.16,0h-3.13v12.46
		c0,0.174-0.097,0.283-0.29,0.33h-0.06c-0.146,0-0.247-0.083-0.3-0.25c0-0.026,0-0.053,0-0.08v-12.46H8.59
		c-0.2,0-0.327-0.066-0.38-0.199c-0.014-0.047-0.02-0.077-0.02-0.091v-0.08c0-0.106,0.073-0.193,0.22-0.26
		C8.43,226.567,8.447,226.56,8.46,226.56z M16.87,226.56h0.03c0.146,0,0.247,0.083,0.3,0.25l0,0c0.6-0.167,1.42-0.25,2.46-0.25h0.53
		c0.84,0,1.667,0.196,2.48,0.59c0.327,0.16,0.633,0.383,0.92,0.67c0.267,0.28,0.443,0.52,0.53,0.72c0.22,0.447,0.33,0.903,0.33,1.37
		v0.18c0,0.773-0.273,1.471-0.82,2.091c-0.333,0.313-0.583,0.51-0.75,0.59c-0.173,0.12-0.434,0.25-0.78,0.39
		c-0.66,0.247-1.3,0.37-1.92,0.37c-1.126,0-2.113-0.104-2.96-0.31v6.369c0,0.207-0.066,0.334-0.2,0.381
		c-0.046,0.02-0.077,0.029-0.09,0.029h-0.08c-0.106,0-0.193-0.069-0.26-0.21c-0.013-0.033-0.02-0.057-0.02-0.069v-12.86
		c0-0.14,0.083-0.233,0.25-0.28C16.84,226.567,16.857,226.56,16.87,226.56 M17.22,232.56c0.813,0.22,1.8,0.33,2.96,0.33
		c0.847,0,1.657-0.233,2.43-0.7c0.793-0.547,1.19-1.25,1.19-2.11v-0.16c0-0.779-0.327-1.423-0.98-1.93
		c-0.36-0.253-0.77-0.443-1.23-0.57c-0.494-0.14-0.954-0.21-1.38-0.21h-0.54c-1.067,0-1.883,0.09-2.45,0.271V232.56z M28.8,226.56
		h0.27c0.953,0,1.78,0.307,2.48,0.92c0.913,0.873,1.37,2.17,1.37,3.89v7.41c0,0.233,0.1,0.49,0.3,0.77
		c0.02,0.047,0.03,0.08,0.03,0.101v0.07c0,0.106-0.07,0.196-0.21,0.27c-0.033,0.007-0.053,0.01-0.06,0.01H32.9
		c-0.167,0-0.337-0.227-0.51-0.68c-0.807,0.446-1.84,0.67-3.1,0.67c-1.293,0-2.36-0.44-3.2-1.32c-0.72-0.786-1.08-1.77-1.08-2.949
		v-0.101c0-1.34,0.547-2.427,1.64-3.26c0.887-0.613,1.85-0.92,2.89-0.92c1.047,0,1.96,0.177,2.74,0.53v-0.591
		c-0.02-2.046-0.67-3.353-1.95-3.92c-0.433-0.166-0.86-0.25-1.28-0.25h-0.23c-1.26,0-2.224,0.287-2.89,0.86
		c-0.2,0.213-0.33,0.366-0.39,0.46c-0.073,0.087-0.156,0.13-0.25,0.13c-0.153,0-0.256-0.083-0.31-0.25
		c-0.007-0.007-0.01-0.02-0.01-0.04v-0.07c0-0.119,0.17-0.35,0.51-0.689c0.38-0.333,0.78-0.57,1.2-0.71
		C27.32,226.674,28.027,226.56,28.8,226.56 M25.65,235.6v0.14c0,1.08,0.347,1.957,1.04,2.63c0.693,0.646,1.563,0.97,2.61,0.97
		c1.18,0,2.133-0.213,2.86-0.64c0.08-0.033,0.12-0.06,0.12-0.08v-5.939c-0.427-0.2-0.857-0.351-1.29-0.45
		c-0.407-0.094-0.89-0.141-1.45-0.141c-1.026,0-1.94,0.324-2.74,0.971C26.033,233.733,25.65,234.58,25.65,235.6z M34.05,226.56h0.08
		c0.113,0,0.207,0.08,0.28,0.239c0.007,0.04,0.01,0.094,0.01,0.16v5.99h6.56v-5.99c0-0.187,0.06-0.31,0.18-0.37
		c0.047-0.02,0.083-0.029,0.11-0.029h0.08c0.1,0,0.187,0.069,0.26,0.21c0.006,0.04,0.01,0.063,0.01,0.069v12.881
		c0,0.106-0.07,0.196-0.21,0.27c-0.026,0.007-0.046,0.01-0.06,0.01h-0.08c-0.113,0-0.207-0.08-0.28-0.239
		c-0.007-0.04-0.01-0.091-0.01-0.15v-6h-6.56v6c0,0.18-0.06,0.3-0.18,0.36c-0.047,0.02-0.083,0.029-0.11,0.029h-0.08
		c-0.107,0-0.193-0.069-0.26-0.21c-0.006-0.033-0.01-0.057-0.01-0.069V226.84c0-0.106,0.07-0.193,0.21-0.26
		C34.023,226.567,34.043,226.56,34.05,226.56z M49.72,226.56h0.08c0.106,0,0.193,0.069,0.26,0.21c0.02,0.04,0.03,0.063,0.03,0.069
		v12.881c0,0.106-0.07,0.196-0.21,0.27c-0.04,0.007-0.067,0.01-0.08,0.01h-0.08c-0.113,0-0.2-0.08-0.26-0.239
		c-0.02-0.04-0.03-0.091-0.03-0.15v-11.5l0,0c-0.12,0.22-1.043,1.843-2.77,4.87c-2.553,4.473-3.87,6.78-3.95,6.92
		c-0.08,0.066-0.15,0.1-0.21,0.1h-0.08c-0.1,0-0.187-0.069-0.26-0.21c-0.006-0.033-0.01-0.057-0.01-0.069V226.88
		c0-0.133,0.077-0.229,0.23-0.29c0.04-0.006,0.073-0.01,0.1-0.01c0.14,0,0.243,0.087,0.31,0.26c0,0.061,0,0.107,0,0.141v11.47h0.01
		c0.1-0.18,1.003-1.767,2.71-4.76c0.26-0.453,1.59-2.787,3.99-7C49.573,226.603,49.647,226.56,49.72,226.56z M50.89,226.56h0.08
		c0.113,0,0.204,0.08,0.27,0.239c0.007,0.034,0.01,0.087,0.01,0.16v12.4h6.53v-12.4c0-0.187,0.06-0.31,0.18-0.37
		c0.046-0.02,0.083-0.029,0.11-0.029h0.07c0.1,0,0.184,0.066,0.25,0.2c0.027,0.033,0.04,0.103,0.04,0.21v12.39h0.89
		c0.18,0,0.29,0.097,0.33,0.29v2.37c0,0.106-0.07,0.193-0.21,0.26c-0.034,0.014-0.054,0.02-0.06,0.02H59.3
		c-0.113,0-0.207-0.079-0.28-0.239c-0.006-0.033-0.01-0.087-0.01-0.16V240h-8.08c-0.167,0-0.273-0.093-0.32-0.279V226.84
		c0-0.106,0.073-0.193,0.22-0.26C50.85,226.567,50.87,226.56,50.89,226.56z M64.01,226.56h0.26c0.954,0,1.78,0.307,2.48,0.92
		c0.92,0.873,1.38,2.17,1.38,3.89v7.41c0,0.233,0.1,0.49,0.3,0.77c0.02,0.047,0.03,0.08,0.03,0.101v0.07
		c0,0.106-0.07,0.196-0.21,0.27c-0.034,0.007-0.057,0.01-0.07,0.01H68.1c-0.167,0-0.336-0.227-0.51-0.68
		c-0.807,0.446-1.84,0.67-3.1,0.67c-1.293,0-2.36-0.44-3.2-1.32c-0.713-0.786-1.07-1.77-1.07-2.949v-0.101
		c0-1.34,0.547-2.427,1.64-3.26c0.88-0.613,1.84-0.92,2.88-0.92c1.053,0,1.97,0.177,2.75,0.53v-0.591
		c-0.02-2.046-0.673-3.353-1.96-3.92c-0.427-0.166-0.85-0.25-1.27-0.25h-0.24c-1.26,0-2.22,0.287-2.88,0.86
		c-0.207,0.213-0.34,0.366-0.4,0.46c-0.066,0.087-0.15,0.13-0.25,0.13c-0.146,0-0.247-0.083-0.3-0.25
		c-0.007-0.007-0.01-0.02-0.01-0.04v-0.07c0-0.119,0.17-0.35,0.51-0.689c0.373-0.333,0.77-0.57,1.19-0.71
		C62.52,226.674,63.23,226.56,64.01,226.56 M60.86,235.6v0.14c0,1.08,0.347,1.957,1.04,2.63c0.687,0.646,1.557,0.97,2.61,0.97
		c1.18,0,2.133-0.213,2.86-0.64c0.08-0.033,0.12-0.06,0.12-0.08v-5.939c-0.433-0.2-0.863-0.351-1.29-0.45
		c-0.413-0.094-0.9-0.141-1.46-0.141c-1.02,0-1.933,0.324-2.74,0.971C61.24,233.733,60.86,234.58,60.86,235.6z M76.72,226.56h0.08
		c0.113,0,0.207,0.08,0.28,0.239c0.007,0.04,0.01,0.094,0.01,0.16v5.99h6.56v-5.99c0-0.187,0.063-0.31,0.19-0.37
		c0.04-0.02,0.073-0.029,0.1-0.029h0.08c0.107,0,0.193,0.069,0.26,0.21c0.013,0.04,0.02,0.063,0.02,0.069v12.881
		c0,0.106-0.07,0.196-0.21,0.27c-0.027,0.007-0.05,0.01-0.07,0.01h-0.08c-0.113,0-0.204-0.08-0.27-0.239
		c-0.014-0.04-0.02-0.091-0.02-0.15v-6h-6.56v6c0,0.18-0.06,0.3-0.18,0.36C76.864,239.99,76.827,240,76.8,240h-0.08
		c-0.1,0-0.187-0.069-0.26-0.21c-0.007-0.033-0.01-0.057-0.01-0.069V226.84c0-0.106,0.07-0.193,0.21-0.26
		C76.693,226.567,76.713,226.56,76.72,226.56z M88.65,226.56h0.26c0.96,0,1.787,0.307,2.48,0.92c0.92,0.873,1.38,2.17,1.38,3.89
		v7.41c0,0.233,0.1,0.49,0.3,0.77c0.02,0.047,0.03,0.08,0.03,0.101v0.07c0,0.106-0.07,0.196-0.21,0.27
		c-0.033,0.007-0.053,0.01-0.06,0.01h-0.08c-0.167,0-0.34-0.227-0.52-0.68c-0.8,0.446-1.83,0.67-3.09,0.67
		c-1.293,0-2.36-0.44-3.2-1.32c-0.72-0.786-1.08-1.77-1.08-2.949v-0.101c0-1.34,0.546-2.427,1.64-3.26
		c0.886-0.613,1.85-0.92,2.89-0.92c1.047,0,1.96,0.177,2.74,0.53v-0.591c-0.02-2.046-0.673-3.353-1.96-3.92
		c-0.427-0.166-0.85-0.25-1.27-0.25h-0.23c-1.26,0-2.224,0.287-2.89,0.86c-0.2,0.213-0.33,0.366-0.39,0.46
		c-0.073,0.087-0.157,0.13-0.25,0.13c-0.153,0-0.256-0.083-0.31-0.25c-0.006-0.007-0.01-0.02-0.01-0.04v-0.07
		c0-0.119,0.17-0.35,0.51-0.689c0.38-0.333,0.78-0.57,1.2-0.71C87.163,226.674,87.87,226.56,88.65,226.56 M85.5,235.6v0.14
		c0,1.08,0.347,1.957,1.04,2.63c0.693,0.646,1.563,0.97,2.61,0.97c1.18,0,2.133-0.213,2.86-0.64c0.08-0.033,0.12-0.06,0.12-0.08
		v-5.939c-0.427-0.2-0.857-0.351-1.29-0.45c-0.407-0.094-0.89-0.141-1.45-0.141c-1.026,0-1.943,0.324-2.75,0.971
		C85.88,233.733,85.5,234.58,85.5,235.6z M93.95,226.56h0.07c0.114,0,0.244,0.137,0.39,0.41c0.107,0.159,1.173,1.803,3.2,4.93
		c0.046,0.053,0.07,0.09,0.07,0.11h0.01c0-0.007,1.117-1.73,3.35-5.171c0.107-0.187,0.21-0.279,0.31-0.279h0.08
		c0.133,0,0.23,0.083,0.29,0.25c0,0.047,0,0.073,0,0.08c0,0.086-0.086,0.25-0.26,0.489c0,0.007-1.063,1.641-3.19,4.9
		c-0.14,0.207-0.21,0.316-0.21,0.33l3.69,6.979v0.061v0.07c0,0.106-0.07,0.196-0.21,0.27c-0.033,0.007-0.057,0.01-0.07,0.01h-0.08
		c-0.126,0-0.243-0.123-0.35-0.37c-0.06-0.119-1.176-2.236-3.35-6.35h-0.01c-2.16,4.113-3.323,6.313-3.49,6.6
		c-0.08,0.08-0.15,0.12-0.21,0.12H93.9c-0.107,0-0.193-0.069-0.26-0.21c-0.006-0.033-0.01-0.057-0.01-0.069v-0.07
		c0-0.047,0.073-0.2,0.22-0.46c2.273-4.313,3.427-6.507,3.46-6.58v-0.01c-2.426-3.727-3.64-5.594-3.64-5.601
		c-0.014-0.053-0.02-0.093-0.02-0.12c0-0.14,0.08-0.239,0.24-0.3C93.904,226.567,93.924,226.56,93.95,226.56z M106.16,226.56h0.13
		c0.76,0,1.454,0.267,2.08,0.8c0.3,0.28,0.517,0.526,0.65,0.74c0.253,0.387,0.457,0.81,0.61,1.27c0.373,1.08,0.56,2.313,0.56,3.7
		v0.42c0,1.787-0.287,3.267-0.86,4.44c-0.146,0.313-0.383,0.656-0.71,1.029c-0.68,0.693-1.457,1.04-2.33,1.04h-0.13
		c-0.76,0-1.457-0.267-2.09-0.8c-0.64-0.554-1.12-1.427-1.44-2.62c-0.24-0.967-0.36-1.996-0.36-3.09v-0.42
		c0-1.887,0.317-3.427,0.95-4.62c0.14-0.253,0.34-0.533,0.6-0.84C104.507,226.91,105.287,226.56,106.16,226.56 M102.92,233.08v0.4
		c0,1.887,0.316,3.377,0.95,4.47c0.113,0.193,0.28,0.41,0.5,0.65c0.527,0.507,1.127,0.76,1.8,0.76h0.11
		c0.793,0,1.47-0.344,2.03-1.03c0.18-0.233,0.324-0.45,0.43-0.649c0.527-1.094,0.79-2.494,0.79-4.2v-0.4
		c0-1.887-0.317-3.377-0.95-4.47c-0.1-0.187-0.263-0.4-0.49-0.64c-0.533-0.507-1.137-0.761-1.81-0.761h-0.11
		c-0.787,0-1.463,0.34-2.03,1.021c-0.18,0.233-0.32,0.453-0.42,0.66C103.187,229.983,102.92,231.38,102.92,233.08z M114.67,226.56
		h4.22c0.113,0,0.204,0.063,0.27,0.189c0.02,0.033,0.03,0.08,0.03,0.141v12.449h0.25c0.193,0,0.313,0.091,0.36,0.271v2.4
		c0,0.14-0.087,0.236-0.26,0.289c-0.013,0.007-0.033,0.011-0.06,0.011c-0.16,0-0.267-0.094-0.32-0.28c0-0.04,0-0.083,0-0.13V240
		h-7.81v1.971c0,0.18-0.06,0.303-0.18,0.369c-0.047,0.014-0.083,0.021-0.11,0.021h-0.07c-0.106,0-0.197-0.07-0.27-0.21
		c-0.007-0.033-0.01-0.054-0.01-0.061v-2.439c0-0.134,0.08-0.227,0.24-0.28c0.027-0.02,0.063-0.03,0.11-0.03h0.91
		c0.007,0,0.043-0.183,0.11-0.55c0.007-0.013,0.5-2.583,1.48-7.71l0.84-4.319C114.467,226.627,114.557,226.56,114.67,226.56
		 M114.95,227.21l-1.54,8.07c-0.013,0.06-0.27,1.413-0.77,4.06h5.9v-12.13H114.95z M127.9,226.56h0.08
		c0.106,0,0.193,0.069,0.26,0.21c0.02,0.04,0.03,0.063,0.03,0.069v12.881c0,0.106-0.07,0.196-0.21,0.27
		c-0.033,0.007-0.06,0.01-0.08,0.01h-0.08c-0.113,0-0.2-0.08-0.26-0.239c-0.02-0.04-0.03-0.091-0.03-0.15v-11.5l0,0
		c-0.12,0.22-1.043,1.843-2.77,4.87c-2.553,4.473-3.87,6.78-3.95,6.92c-0.073,0.066-0.143,0.1-0.21,0.1h-0.08
		c-0.1,0-0.187-0.069-0.26-0.21c-0.007-0.033-0.01-0.057-0.01-0.069V226.88c0-0.133,0.08-0.229,0.24-0.29
		c0.033-0.006,0.063-0.01,0.09-0.01c0.14,0,0.244,0.087,0.31,0.26c0,0.061,0,0.107,0,0.141v11.47h0.02
		c0.093-0.18,0.993-1.767,2.7-4.76c0.26-0.453,1.59-2.787,3.99-7C127.76,226.603,127.833,226.56,127.9,226.56z M129.07,226.56h7.31
		c0.1,0,0.187,0.069,0.26,0.21c0.007,0.04,0.01,0.063,0.01,0.069v0.08c0,0.12-0.083,0.217-0.25,0.29c-0.066,0-0.116,0-0.149,0h-3.14
		v12.46c0,0.174-0.098,0.283-0.291,0.33h-0.05c-0.146,0-0.247-0.083-0.3-0.25c0-0.026,0-0.053,0-0.08v-12.46h-3.27
		c-0.2,0-0.327-0.066-0.38-0.199c-0.02-0.047-0.03-0.077-0.03-0.091v-0.08c0-0.106,0.077-0.193,0.23-0.26
		C129.033,226.567,129.05,226.56,129.07,226.56z M141.06,226.56h0.16c0.727,0,1.427,0.276,2.1,0.83
		c0.314,0.307,0.508,0.52,0.58,0.64c0.154,0.227,0.273,0.437,0.36,0.63c0.087,0.187,0.13,0.32,0.13,0.4c0,0.146-0.09,0.246-0.27,0.3
		c-0.007,0-0.023,0.003-0.051,0.01c-0.18,0-0.303-0.137-0.369-0.41c-0.141-0.313-0.36-0.63-0.66-0.949
		c-0.587-0.534-1.197-0.801-1.83-0.801h-0.12c-0.987,0-1.78,0.507-2.38,1.521c-0.594,1.093-0.891,2.543-0.891,4.35v0.4
		c0,1.887,0.32,3.377,0.961,4.47c0.593,0.94,1.363,1.41,2.31,1.41h0.08c0.727,0,1.373-0.3,1.94-0.9
		c0.387-0.433,0.666-0.933,0.84-1.5c0-0.093,0.069-0.173,0.209-0.239c0.034-0.007,0.064-0.011,0.091-0.011h0.03
		c0.14,0,0.239,0.077,0.299,0.23c0,0.026,0,0.05,0,0.07v0.039c-0.006,0.114-0.072,0.304-0.199,0.57
		c-0.087,0.247-0.26,0.563-0.52,0.95c-0.475,0.64-1.074,1.073-1.801,1.3c-0.307,0.087-0.6,0.13-0.88,0.13h-0.12
		c-0.76,0-1.453-0.27-2.08-0.81c-0.606-0.521-1.076-1.333-1.41-2.44c-0.26-1.007-0.39-2.093-0.39-3.26v-0.42
		c0-1.787,0.283-3.264,0.851-4.43c0.16-0.327,0.379-0.657,0.66-0.99c0.239-0.254,0.439-0.434,0.6-0.54
		C139.857,226.743,140.447,226.56,141.06,226.56z M152.65,226.56h0.08c0.1,0,0.188,0.069,0.26,0.21
		c0.008,0.04,0.011,0.063,0.011,0.069v12.881c0,0.106-0.07,0.196-0.21,0.27c-0.027,0.007-0.047,0.01-0.061,0.01h-0.08
		c-0.127,0-0.22-0.083-0.279-0.25c-0.007-0.066-0.01-0.12-0.01-0.16v-5.899l0,0c-4.174,3.96-6.327,6.003-6.461,6.13
		c-0.093,0.1-0.193,0.15-0.3,0.15h-0.01c-0.147,0-0.247-0.084-0.3-0.25l-0.021-0.061c0-0.12,0.104-0.26,0.31-0.42
		c0.047-0.054,1.49-1.423,4.33-4.11c1.234-1.159,1.854-1.75,1.86-1.77h-0.01c-0.547,0.073-1.163,0.11-1.851,0.11h-0.58
		c-1.126,0-2.103-0.287-2.93-0.86c-0.38-0.293-0.663-0.6-0.85-0.92c-0.3-0.514-0.45-1.047-0.45-1.601V229.9
		c0-0.773,0.313-1.467,0.94-2.08c0.486-0.42,0.986-0.717,1.5-0.89c0.687-0.233,1.33-0.351,1.93-0.351h0.66
		c0.867,0,1.613,0.087,2.24,0.26c0-0.1,0.066-0.187,0.199-0.26C152.616,226.567,152.644,226.56,152.65,226.56 M145.75,229.91v0.16
		c0,0.76,0.3,1.396,0.899,1.91c0.721,0.56,1.617,0.84,2.69,0.84h0.55c1.007,0,1.83-0.077,2.471-0.23v-5.1
		c-0.641-0.18-1.387-0.27-2.24-0.27h-0.631c-0.746,0-1.5,0.183-2.26,0.55c-0.246,0.12-0.496,0.297-0.75,0.529
		c-0.18,0.174-0.303,0.317-0.369,0.431C145.87,229.103,145.75,229.497,145.75,229.91z M161.27,226.56h0.08
		c0.113,0,0.204,0.08,0.271,0.239v0.03c0.533-0.16,1.3-0.24,2.3-0.24c0.68,0,1.276,0.097,1.79,0.29c0.293,0.113,0.56,0.237,0.8,0.37
		c1.101,0.66,1.649,1.504,1.649,2.53c0,0.993-0.43,1.813-1.289,2.46c-0.32,0.233-0.594,0.387-0.82,0.46v0.021
		c0.627,0.227,1.193,0.569,1.7,1.029c0.38,0.387,0.613,0.677,0.7,0.87c0.093,0.134,0.189,0.344,0.289,0.63
		c0.088,0.3,0.131,0.577,0.131,0.83v0.17c0,0.74-0.268,1.457-0.801,2.15c-0.279,0.3-0.496,0.507-0.649,0.62
		c-0.521,0.394-1.026,0.653-1.521,0.779c-0.366,0.127-0.83,0.19-1.39,0.19h-0.06c-1.254,0-2.19-0.113-2.811-0.34l0,0
		c0,0.18-0.083,0.293-0.25,0.34c-0.014,0.007-0.026,0.01-0.04,0.01h-0.08c-0.106,0-0.192-0.069-0.26-0.21
		c-0.013-0.033-0.021-0.057-0.021-0.069V226.84c0-0.106,0.07-0.193,0.211-0.26C161.239,226.567,161.263,226.56,161.27,226.56
		 M161.64,227.48v4.92h2.65c1.073,0,1.939-0.34,2.6-1.021c0.42-0.466,0.63-1,0.63-1.6c0-0.827-0.477-1.5-1.43-2.02
		c-0.3-0.16-0.606-0.284-0.92-0.37c-0.341-0.107-0.767-0.16-1.28-0.16c-0.96,0-1.707,0.083-2.24,0.25H161.64 M161.64,233.049v5.9
		c0.014,0.021,0.127,0.061,0.34,0.12c0.507,0.18,1.348,0.27,2.521,0.27h0.01c0.62,0,1.153-0.093,1.601-0.279
		c0.246-0.107,0.486-0.243,0.719-0.41c0.395-0.28,0.714-0.604,0.961-0.97c0.287-0.48,0.43-0.967,0.43-1.46v-0.141
		c0-0.547-0.227-1.09-0.68-1.63c-0.313-0.313-0.551-0.514-0.711-0.6c-0.34-0.233-0.656-0.407-0.949-0.521
		c-0.5-0.187-0.96-0.28-1.38-0.28H161.64z M177.159,226.56h0.031c0.146,0,0.246,0.083,0.299,0.25l0,0
		c0.594-0.167,1.41-0.25,2.451-0.25h0.539c0.84,0,1.667,0.196,2.48,0.59c0.326,0.16,0.633,0.383,0.92,0.67
		c0.26,0.28,0.434,0.52,0.52,0.72c0.221,0.447,0.33,0.903,0.33,1.37v0.18c0,0.773-0.27,1.471-0.81,2.091
		c-0.333,0.313-0.583,0.51-0.75,0.59c-0.173,0.12-0.437,0.25-0.79,0.39c-0.653,0.247-1.29,0.37-1.91,0.37
		c-1.133,0-2.123-0.104-2.97-0.31v6.369c0,0.207-0.067,0.334-0.2,0.381c-0.04,0.02-0.07,0.029-0.09,0.029h-0.08
		c-0.1,0-0.188-0.069-0.26-0.21c-0.007-0.033-0.01-0.057-0.01-0.069v-12.86c0-0.14,0.083-0.233,0.25-0.28
		C177.123,226.567,177.14,226.56,177.159,226.56 M177.5,232.56c0.813,0.22,1.804,0.33,2.97,0.33c0.847,0,1.653-0.233,2.42-0.7
		c0.801-0.547,1.2-1.25,1.2-2.11v-0.16c0-0.779-0.33-1.423-0.99-1.93c-0.353-0.253-0.763-0.443-1.229-0.57
		c-0.486-0.14-0.947-0.21-1.381-0.21h-0.529c-1.074,0-1.894,0.09-2.46,0.271V232.56z M189.09,226.56h0.26
		c0.954,0,1.78,0.307,2.479,0.92c0.921,0.873,1.381,2.17,1.381,3.89v7.41c0,0.233,0.1,0.49,0.3,0.77
		c0.021,0.047,0.03,0.08,0.03,0.101v0.07c0,0.106-0.07,0.196-0.211,0.27c-0.039,0.007-0.063,0.01-0.069,0.01h-0.08
		c-0.167,0-0.337-0.227-0.51-0.68c-0.807,0.446-1.841,0.67-3.101,0.67c-1.293,0-2.359-0.44-3.199-1.32
		c-0.714-0.786-1.07-1.77-1.07-2.949v-0.101c0-1.34,0.547-2.427,1.641-3.26c0.879-0.613,1.84-0.92,2.879-0.92
		c1.054,0,1.971,0.177,2.75,0.53v-0.591c-0.02-2.046-0.673-3.353-1.959-3.92c-0.428-0.166-0.851-0.25-1.271-0.25h-0.24
		c-1.26,0-2.224,0.287-2.89,0.86c-0.2,0.213-0.33,0.366-0.391,0.46c-0.066,0.087-0.149,0.13-0.25,0.13
		c-0.146,0-0.246-0.083-0.3-0.25c-0.007-0.007-0.01-0.02-0.01-0.04v-0.07c0-0.119,0.17-0.35,0.51-0.689
		c0.374-0.333,0.771-0.57,1.19-0.71C187.6,226.674,188.31,226.56,189.09,226.56 M185.941,235.6v0.14c0,1.08,0.346,1.957,1.039,2.63
		c0.688,0.646,1.557,0.97,2.61,0.97c1.18,0,2.134-0.213,2.86-0.64c0.08-0.033,0.119-0.06,0.119-0.08v-5.939
		c-0.434-0.2-0.863-0.351-1.289-0.45c-0.414-0.094-0.9-0.141-1.461-0.141c-1.02,0-1.934,0.324-2.74,0.971
		C186.32,233.733,185.941,234.58,185.941,235.6z M197.89,226.56h0.17c0.561,0,1.2,0.233,1.92,0.7c0.167,0.106,0.391,0.3,0.67,0.579
		l0.291,0.341c0.406,0.573,0.609,1.177,0.609,1.81c0,1.293-0.687,2.28-2.061,2.96c-0.146,0.066-0.223,0.1-0.229,0.1
		c0.007,0.007,0.124,0.051,0.351,0.131c0.453,0.166,0.89,0.437,1.31,0.81c0.347,0.347,0.557,0.61,0.63,0.79
		c0.267,0.48,0.4,0.96,0.4,1.44v0.199c0,0.94-0.334,1.757-1,2.45c-0.273,0.254-0.518,0.437-0.73,0.55
		c-0.713,0.387-1.42,0.58-2.12,0.58h-0.18c-0.634,0-1.307-0.183-2.021-0.55c-0.253-0.133-0.516-0.31-0.789-0.53
		c-0.294-0.286-0.48-0.496-0.561-0.63c-0.267-0.366-0.43-0.723-0.49-1.069v-0.051c0-0.14,0.087-0.243,0.26-0.31h0.08
		c0.18,0,0.291,0.14,0.33,0.42c0.247,0.687,0.76,1.233,1.54,1.64c0.601,0.294,1.153,0.44,1.66,0.44h0.149
		c0.681,0,1.348-0.207,2-0.62c0.521-0.34,0.881-0.813,1.08-1.42c0.088-0.307,0.131-0.617,0.131-0.93v-0.13
		c0-0.607-0.213-1.153-0.641-1.641c-0.24-0.233-0.437-0.399-0.59-0.5c-0.68-0.42-1.41-0.63-2.189-0.63l-0.34,0.01
		c-0.113,0-0.207-0.069-0.28-0.21c-0.007-0.033-0.011-0.057-0.011-0.069v-0.061c0-0.14,0.084-0.236,0.25-0.29
		c0.514-0.087,0.884-0.173,1.11-0.26c1.54-0.514,2.31-1.387,2.31-2.62c0-0.747-0.353-1.42-1.06-2.02
		c-0.272-0.214-0.513-0.367-0.72-0.46c-0.42-0.2-0.78-0.301-1.08-0.301h-0.12c-0.76,0-1.51,0.24-2.25,0.721
		c-0.193,0.126-0.387,0.296-0.58,0.51c-0.159,0.173-0.283,0.337-0.37,0.49c-0.066,0.073-0.146,0.109-0.24,0.109
		c-0.152,0-0.256-0.087-0.31-0.26c-0.007-0.026-0.01-0.054-0.01-0.08c0.013-0.153,0.203-0.427,0.569-0.82
		c0.334-0.319,0.598-0.526,0.791-0.619c0.253-0.16,0.516-0.294,0.789-0.4C196.894,226.66,197.417,226.56,197.89,226.56z
		 M202.77,226.56h0.03c0.146,0,0.246,0.083,0.3,0.25l0,0c0.601-0.167,1.42-0.25,2.46-0.25h0.53c0.84,0,1.667,0.196,2.479,0.59
		c0.327,0.16,0.634,0.383,0.92,0.67c0.268,0.28,0.443,0.52,0.53,0.72c0.22,0.447,0.33,0.903,0.33,1.37v0.18
		c0,0.773-0.272,1.471-0.819,2.091c-0.334,0.313-0.584,0.51-0.75,0.59c-0.174,0.12-0.434,0.25-0.78,0.39
		c-0.66,0.247-1.3,0.37-1.921,0.37c-1.126,0-2.113-0.104-2.959-0.31v6.369c0,0.207-0.066,0.334-0.2,0.381
		c-0.047,0.02-0.077,0.029-0.091,0.029h-0.079c-0.106,0-0.193-0.069-0.261-0.21c-0.013-0.033-0.02-0.057-0.02-0.069v-12.86
		c0-0.14,0.084-0.233,0.25-0.28C202.739,226.567,202.757,226.56,202.77,226.56 M203.12,232.56c0.813,0.22,1.8,0.33,2.959,0.33
		c0.848,0,1.657-0.233,2.431-0.7c0.794-0.547,1.19-1.25,1.19-2.11v-0.16c0-0.779-0.327-1.423-0.98-1.93
		c-0.359-0.253-0.77-0.443-1.23-0.57c-0.492-0.14-0.953-0.21-1.379-0.21h-0.541c-1.066,0-1.883,0.09-2.449,0.271V232.56z
		 M214.7,226.56h0.27c0.953,0,1.78,0.307,2.48,0.92c0.913,0.873,1.369,2.17,1.369,3.89v7.41c0,0.233,0.101,0.49,0.301,0.77
		c0.02,0.047,0.029,0.08,0.029,0.101v0.07c0,0.106-0.07,0.196-0.209,0.27c-0.034,0.007-0.055,0.01-0.061,0.01h-0.08
		c-0.166,0-0.337-0.227-0.51-0.68c-0.807,0.446-1.84,0.67-3.1,0.67c-1.294,0-2.361-0.44-3.201-1.32
		c-0.72-0.786-1.08-1.77-1.08-2.949v-0.101c0-1.34,0.547-2.427,1.641-3.26c0.887-0.613,1.85-0.92,2.891-0.92
		c1.046,0,1.959,0.177,2.739,0.53v-0.591c-0.021-2.046-0.673-3.353-1.96-3.92c-0.427-0.166-0.85-0.25-1.27-0.25h-0.23
		c-1.26,0-2.223,0.287-2.891,0.86c-0.199,0.213-0.329,0.366-0.389,0.46c-0.074,0.087-0.157,0.13-0.25,0.13
		c-0.154,0-0.258-0.083-0.311-0.25c-0.007-0.007-0.01-0.02-0.01-0.04v-0.07c0-0.119,0.17-0.35,0.51-0.689
		c0.38-0.333,0.779-0.57,1.199-0.71C213.213,226.674,213.92,226.56,214.7,226.56 M211.55,235.6v0.14c0,1.08,0.347,1.957,1.04,2.63
		c0.693,0.646,1.563,0.97,2.61,0.97c1.18,0,2.133-0.213,2.859-0.64c0.08-0.033,0.12-0.06,0.12-0.08v-5.939
		c-0.427-0.2-0.856-0.351-1.29-0.45c-0.406-0.094-0.89-0.141-1.449-0.141c-1.027,0-1.94,0.324-2.74,0.971
		C211.933,233.733,211.55,234.58,211.55,235.6z M227.441,221.18h0.079c0.114,0,0.207,0.076,0.28,0.229
		c0.007,0.014,0.01,0.033,0.01,0.061v0.079c-0.033,0.2-0.17,0.454-0.41,0.761c-0.266,0.267-0.523,0.46-0.77,0.58
		s-0.496,0.217-0.75,0.29c-0.233,0.08-0.687,0.137-1.36,0.17c-0.366,0.06-0.656,0.123-0.87,0.189c-0.366,0.106-0.732,0.26-1.1,0.46
		c-0.221,0.127-0.46,0.307-0.721,0.54c-0.199,0.214-0.389,0.45-0.569,0.71c-0.233,0.34-0.417,0.737-0.55,1.19
		c-0.146,0.64-0.221,1.08-0.221,1.32c-0.046,0.38-0.069,0.663-0.069,0.85l0,0l0,0c0.093-0.22,0.243-0.49,0.45-0.811
		c0.746-1.053,1.696-1.579,2.85-1.579h0.02c1.247,0,2.24,0.59,2.98,1.77c0.721,1.207,1.08,2.873,1.08,5v0.24
		c0,2.253-0.4,3.986-1.2,5.2c-0.466,0.699-1.09,1.177-1.87,1.43c-0.333,0.093-0.64,0.14-0.92,0.14h-0.13
		c-1.007,0-1.87-0.423-2.59-1.27c-0.94-1.193-1.41-3.05-1.41-5.57v-1.14c0-2.193,0.07-3.834,0.21-4.92
		c0.073-0.42,0.164-0.797,0.27-1.13c0.113-0.313,0.268-0.627,0.461-0.94c0.246-0.387,0.479-0.693,0.699-0.92
		c0.487-0.453,1.021-0.79,1.601-1.01c0.286-0.12,0.6-0.221,0.94-0.301c0.439-0.086,0.816-0.13,1.129-0.13
		c0.307-0.046,0.547-0.093,0.721-0.14c0.66-0.2,1.106-0.486,1.34-0.86c0.033-0.06,0.08-0.17,0.141-0.33
		C227.27,221.233,227.353,221.18,227.441,221.18 M220.329,233.1v0.02c0,3,0.657,4.94,1.971,5.82
		c0.439,0.267,0.903,0.399,1.391,0.399h0.079c1.026,0,1.844-0.522,2.45-1.569c0.607-1.113,0.91-2.637,0.91-4.57v-0.18
		c0-2.38-0.443-4.106-1.33-5.181c-0.566-0.64-1.246-0.96-2.04-0.96h-0.021c-1.307,0-2.26,0.787-2.859,2.36
		C220.513,230.254,220.329,231.54,220.329,233.1z M232.22,226.56h0.13c0.761,0,1.457,0.267,2.091,0.8
		c0.293,0.28,0.506,0.526,0.639,0.74c0.254,0.387,0.461,0.81,0.621,1.27c0.366,1.08,0.55,2.313,0.55,3.7v0.42
		c0,1.787-0.284,3.267-0.851,4.44c-0.152,0.313-0.39,0.656-0.709,1.029c-0.688,0.693-1.467,1.04-2.341,1.04h-0.13
		c-0.76,0-1.457-0.267-2.09-0.8c-0.633-0.554-1.113-1.427-1.439-2.62c-0.234-0.967-0.351-1.996-0.351-3.09v-0.42
		c0-1.887,0.313-3.427,0.94-4.62c0.14-0.253,0.34-0.533,0.6-0.84C230.567,226.91,231.347,226.56,232.22,226.56 M228.98,233.08v0.4
		c0,1.887,0.32,3.377,0.961,4.47c0.113,0.193,0.279,0.41,0.5,0.65c0.52,0.507,1.116,0.76,1.789,0.76h0.11
		c0.794,0,1.47-0.344,2.03-1.03c0.187-0.233,0.333-0.45,0.439-0.649c0.52-1.094,0.78-2.494,0.78-4.2v-0.4
		c0-1.887-0.313-3.377-0.94-4.47c-0.106-0.187-0.273-0.4-0.5-0.64c-0.533-0.507-1.137-0.761-1.81-0.761h-0.11
		c-0.786,0-1.463,0.34-2.029,1.021c-0.174,0.233-0.314,0.453-0.42,0.66C229.247,229.983,228.98,231.38,228.98,233.08z
		 M237.05,226.56h7.311c0.105,0,0.193,0.069,0.26,0.21c0.006,0.04,0.01,0.063,0.01,0.069v0.08c0,0.12-0.084,0.217-0.25,0.29
		c-0.066,0-0.117,0-0.15,0h-3.14v12.46c0,0.174-0.097,0.283-0.29,0.33h-0.05c-0.147,0-0.247-0.083-0.3-0.25c0-0.026,0-0.053,0-0.08
		v-12.46h-3.271c-0.2,0-0.327-0.066-0.38-0.199c-0.02-0.047-0.03-0.077-0.03-0.091v-0.08c0-0.106,0.077-0.193,0.23-0.26
		C237.013,226.567,237.031,226.56,237.05,226.56z M252.72,226.56h0.09c0.107,0,0.193,0.069,0.26,0.21
		c0.007,0.04,0.01,0.063,0.01,0.069v0.08c0,0.094-0.076,0.197-0.229,0.311c-4.233,3.434-6.35,5.153-6.35,5.16
		c0.227,0.246,1.59,1.729,4.09,4.449c1.566,1.693,2.38,2.584,2.44,2.671c0.033,0.053,0.049,0.1,0.049,0.14v0.07
		c0,0.106-0.069,0.196-0.209,0.27c-0.033,0.007-0.054,0.01-0.061,0.01h-0.09c-0.086,0-0.21-0.097-0.37-0.29
		c-0.106-0.113-1.167-1.267-3.18-3.46l-3.17-3.45c-0.12,0.094-0.187,0.141-0.2,0.141v6.649c0,0.207-0.063,0.334-0.189,0.381
		c-0.047,0.02-0.08,0.029-0.101,0.029h-0.08c-0.101,0-0.187-0.069-0.26-0.21c-0.007-0.033-0.011-0.057-0.011-0.069V226.88
		c0-0.14,0.084-0.236,0.25-0.29l0.08-0.01c0.141,0,0.24,0.077,0.301,0.23c0.006,0.053,0.01,0.116,0.01,0.189v5.11
		c3.859-3.12,5.916-4.787,6.17-5c0.387-0.313,0.609-0.486,0.67-0.521C252.68,226.57,252.706,226.56,252.72,226.56z M257.49,226.56
		h0.131c0.766,0,1.463,0.267,2.09,0.8c0.3,0.28,0.514,0.526,0.64,0.74c0.253,0.387,0.46,0.81,0.62,1.27
		c0.367,1.08,0.55,2.313,0.55,3.7v0.25c0,0.1-0.063,0.187-0.19,0.26c-0.039,0.021-0.116,0.03-0.229,0.03h-6.85
		c0,1.066,0.14,2.1,0.42,3.1c0.153,0.48,0.319,0.877,0.5,1.19c0.606,0.974,1.39,1.46,2.35,1.46h0.13c0.613,0,1.19-0.177,1.73-0.53
		c0.547-0.359,0.949-0.92,1.21-1.68c0.054-0.227,0.101-0.36,0.14-0.4c0.074-0.066,0.156-0.1,0.25-0.1c0.154,0,0.257,0.09,0.311,0.27
		c0,0.014,0.003,0.033,0.01,0.061c-0.007,0.153-0.104,0.45-0.29,0.89c-0.113,0.233-0.257,0.477-0.431,0.73
		c-0.152,0.18-0.329,0.353-0.529,0.52c-0.427,0.38-0.93,0.634-1.51,0.76c-0.293,0.08-0.59,0.12-0.891,0.12h-0.16
		c-0.746,0-1.439-0.267-2.08-0.8c-0.605-0.526-1.069-1.337-1.39-2.43c-0.272-0.993-0.409-2.087-0.409-3.28v-0.42
		c0-1.787,0.283-3.264,0.85-4.43c0.153-0.32,0.387-0.667,0.699-1.04C255.84,226.907,256.616,226.56,257.49,226.56 M254.25,232.95
		h6.62c0-1.066-0.137-2.097-0.41-3.09c-0.146-0.446-0.277-0.771-0.391-0.97c-0.072-0.153-0.199-0.36-0.379-0.62
		c-0.574-0.707-1.268-1.061-2.08-1.061h-0.101c-0.866,0-1.59,0.4-2.17,1.2c-0.173,0.254-0.327,0.53-0.46,0.83
		c-0.107,0.273-0.221,0.627-0.34,1.06C254.347,231.214,254.25,232.096,254.25,232.95z"/>
</g>
<g id="SvgjsG1055" transform="translate(93.40776740180121,-3.7222222222222223) scale(0.7444444444444445)" xmlns:name="symbol_mainfill">
	<g>
		<path fill="#553285" d="M5,50c0,24.853,20.147,45,45,45c24.853,0,45-20.147,45-45S74.853,5,50,5C25.147,5,5,25.146,5,50z
			 M30.617,70.473c0-0.321,0.261-0.582,0.583-0.582h8.905c-0.235-0.736-0.322-1.41-0.371-1.951l-7.667-2.345
			c-0.308-0.094-0.482-0.42-0.387-0.728c0.094-0.308,0.423-0.483,0.728-0.387l7.206,2.204l-0.089-0.88
			c-0.043-0.426,0.269-0.809,0.696-0.851c0.436-0.045,0.808,0.269,0.852,0.695l0.154,1.53l1.798,0.551
			c0.308,0.093,0.482,0.42,0.387,0.728c-0.077,0.251-0.308,0.413-0.558,0.413c-0.057,0-0.114-0.009-0.171-0.026l-1.316-0.403
			c0.078,0.479,0.2,0.967,0.402,1.451h2.294c0.322,0,0.583,0.261,0.583,0.582c0,0.321-0.261,0.582-0.583,0.582h-1.625
			c0.452,0.598,1.084,1.174,1.969,1.709l1.695-0.648c0.299-0.114,0.638,0.037,0.753,0.337c0.115,0.302-0.036,0.638-0.337,0.753
			l-0.623,0.239c2.493,0.715,5.174-0.651,6.11-1.203L50.2,70.325c-0.299-0.317-0.414-0.761-0.309-1.185
			c0.105-0.422,0.414-0.758,0.825-0.899c0.624-0.211,1.292-0.294,2.061-0.228c0.969,0.08,1.788,0.342,2.431,0.777
			c0.324,0.22,0.525,0.571,0.551,0.963c0.028,0.397-0.129,0.777-0.425,1.042l-1.795,1.599c0.233,0.4,1.707,2.568,5.797,1.948
			l-0.854-0.506c-0.277-0.164-0.369-0.522-0.205-0.799c0.165-0.277,0.523-0.369,0.8-0.205l1.798,1.067
			c0.61-0.308,1.124-0.752,1.545-1.266l-2.061-0.496c-0.314-0.075-0.506-0.391-0.43-0.704c0.075-0.314,0.388-0.504,0.703-0.43
			l2.488,0.599c0.341-0.602,0.589-1.209,0.767-1.728l-2.464,0.089c-0.007,0-0.013,0-0.021,0c-0.312,0-0.572-0.247-0.584-0.561
			c-0.012-0.323,0.24-0.592,0.563-0.605l2.843-0.104c0.022-0.102,0.035-0.171,0.037-0.177c0.075-0.422,0.476-0.708,0.9-0.631
			c0.371,0.066,0.62,0.387,0.628,0.752l4.472-0.164c0.306-0.005,0.592,0.24,0.603,0.563c0.012,0.321-0.24,0.592-0.561,0.603
			l-4.761,0.174c-0.171,0.588-0.443,1.364-0.855,2.167l7.351,1.77c0.314,0.075,0.506,0.39,0.43,0.704
			c-0.064,0.266-0.303,0.447-0.567,0.447c-0.045,0-0.092-0.005-0.136-0.017l-7.703-1.855c-0.445,0.655-0.989,1.278-1.669,1.773
			l5.427,3.215c0.277,0.164,0.369,0.522,0.203,0.799c-0.109,0.185-0.302,0.287-0.501,0.287c-0.102,0-0.205-0.026-0.298-0.083
			l-6.015-3.565c-0.312,0.13-0.64,0.244-0.997,0.316c-0.851,0.176-1.621,0.251-2.317,0.251c-0.134,0-0.252-0.017-0.38-0.022
			c-1.905,1.341-3.813,2.027-5.675,2.027l0,0c-3.234,0-5.279-1.958-6.148-3.016c-0.46-0.115-0.919-0.277-1.373-0.509
			c-0.171-0.088-0.326-0.18-0.484-0.27l-9.323,3.562c-0.068,0.026-0.139,0.038-0.208,0.038c-0.235,0-0.456-0.143-0.545-0.375
			c-0.115-0.3,0.036-0.638,0.337-0.753l8.548-3.266c-0.977-0.761-1.623-1.579-2.05-2.38H31.2
			C30.878,71.057,30.617,70.794,30.617,70.473z M67.785,57.629c-0.163,0.449-0.784,1.97-1.968,2.702
			c-0.598,0.37-1.32,0.589-2.204,0.67c-0.262,0.024-0.547,0.039-0.84,0.039c-1.32,0-2.349-0.295-3.06-0.878
			c-0.063-0.051-0.122-0.105-0.18-0.163c-1.418-1.431-0.577-4.242,0.601-5.475c1.073-1.123,2.739-1.705,4.395-1.539
			c0.979,0.098,1.96,0.445,2.666,0.74c0.374,0.156,0.938,0.391,1.072,1.174C68.411,55.735,68.121,56.706,67.785,57.629z
			 M47.466,57.897c-0.736,0.479-1.638,0.731-2.608,0.731c-0.876,0-1.783-0.202-2.624-0.58c-0.813-0.367-1.429-0.816-1.883-1.372
			c-0.516-0.631-0.85-1.443-0.993-2.412c-0.503-3.407,0.243-3.601,0.562-3.684c3.306-0.863,5.824-0.268,7.316,1.716
			c0.58,0.77,0.94,1.739,1.014,2.726C48.301,55.698,48.327,57.337,47.466,57.897z M17.96,78.649c-0.45-0.509-0.89-1.03-1.329-1.56
			c0.3-1.64,0.74-3.219,1.16-4.17c0.39-0.87,1.05-1.919,1.75-3.02c0.82-1.3,1.67-2.65,2.16-3.84c0.43-1.021,0.39-4.7,0.36-7.95
			c-0.04-3.59-0.07-7.3,0.36-9.48c0.84-4.19,5.94-17.37,6.45-18.67c0.09-0.731,0.17-1.431,0.23-1.931c0.01-0.58,0.1-5.769,0.5-7.25
			c0.4-1.519,2.22-4.539,3.8-5.449c1.66-0.941,4.36,0.409,4.67,0.56c0.04,0.02,0.08,0.05,0.11,0.08c0.08,0.06,1.82,1.419,4.42,4.51
			c0.64,0.75,1.35,1.89,2.06,3.2c0.01,0,0.01,0,0.02,0c0.29,0,7.191-0.03,12.081,0.83c4.309,0.76,8.12,2.929,9.169,3.569l6.79-1.549
			c0.43-0.281,0.729-0.471,0.79-0.51c1.78-0.91,7.729-3.71,9.429-1.499c1.741,2.259,0.11,4.93,0.041,5.04l-4.871,7.679
			c-0.189,0.29-0.279,0.62-0.279,0.971v1.089c0,0.681-0.13,1.351-0.379,1.99l-1.16,2.941c-0.11,0.27-0.121,0.569-0.041,0.85
			c0.539,1.91,1.78,6.879,1.549,11.899c-0.249,5.28-4.08,9.48-5.57,10.921c0.93,1.11,2.81,3.5,3.211,5.259
			c0.1,0.43,0.189,0.891,0.279,1.36c0.319,1.65,0.69,3.52,1.489,4.261c0.512,0.47,2.351,2.289,2.411,2.349
			c-0.37,0.37-0.75,0.71-1.141,1.06c-0.039-0.039-1.829-1.819-2.319-2.269c-1.181-1.09-1.579-3.13-1.97-5.1
			c-0.089-0.46-0.169-0.9-0.27-1.32c-0.349-1.561-2.54-4.241-3.349-5.141C70.43,68.2,70.35,68,70.37,67.79
			c0.01-0.21,0.11-0.411,0.27-0.551c0.06-0.039,5.34-4.569,5.6-10.329c0.23-4.791-0.959-9.571-1.489-11.401
			c-0.171-0.61-0.142-1.259,0.089-1.839L76,40.72c0.181-0.46,0.27-0.93,0.27-1.421v-1.089c0-0.64,0.18-1.261,0.519-1.801
			l4.871-7.679c0.009-0.01,1.14-1.85,0.05-3.27c-0.62-0.79-4.44,0.39-7.43,1.91c-0.009,0-0.26,0.171-0.66,0.43
			c-0.071,0.06-0.14,0.1-0.22,0.14c-1.739,1.14-5.549,3.719-6.79,5.07c-0.53,0.589-1.92,2.68-2.41,3.44
			c-0.23,0.359-0.71,0.46-1.07,0.23c-0.359-0.23-0.47-0.72-0.23-1.08c0.18-0.29,1.839-2.851,2.561-3.63
			c0.74-0.811,2.23-1.97,3.729-3.041l-3.22,0.74c-0.06,0.01-0.121,0.021-0.18,0.021c-0.14,0-0.29-0.05-0.42-0.13
			c-0.041-0.021-4.231-2.701-8.88-3.521c-3.811-0.67-9.041-0.779-11.011-0.8c1.95,3.841,3.73,8.26,3.84,8.541
			c0.16,0.399-0.03,0.849-0.43,1.009c-0.4,0.16-0.85-0.039-1.01-0.429c-0.04-0.101-4-9.95-6.47-12.881
			c-2.23-2.65-3.82-3.991-4.13-4.24c-0.9-0.45-2.46-0.92-3.1-0.55c-1.07,0.61-2.72,3.15-3.08,4.489c-0.29,1.101-0.42,5.34-0.45,6.96
			c-0.02,0.171-0.49,4.24-0.68,5.22c-0.09,0.46,0.36,2.55,0.84,4.22c0.12,0.411-0.12,0.841-0.53,0.96
			c-0.07,0.02-0.14,0.03-0.22,0.03c-0.33,0-0.64-0.22-0.74-0.56c-0.16-0.53-0.51-1.8-0.73-2.959c-1.7,4.56-4.11,11.229-4.64,13.88
			c-0.41,2.029-0.37,5.659-0.33,9.169c0.03,3.88,0.07,7.24-0.48,8.56c-0.55,1.31-1.43,2.71-2.29,4.07
			c-0.66,1.049-1.289,2.05-1.63,2.82C18.69,74.749,18.19,76.791,17.96,78.649z"/>
		<path fill="#553285" d="M55.231,75.575c-0.989,0.502-2.151,0.896-3.384,0.896l0,0c-1.61,0-2.847-0.618-3.73-1.288
			c1.898-0.172,3.567-0.963,4.457-1.467C53.037,74.296,53.883,75.087,55.231,75.575z"/>
		<path fill="#553285" d="M46.568,56.624c0.101-0.198,0.178-0.859,0.131-1.488c-0.052-0.693-0.302-1.371-0.706-1.907
			c-1.038-1.381-2.785-1.791-5.215-1.258c-0.007,0.618,0.078,1.774,0.12,2.065c0.101,0.687,0.323,1.245,0.659,1.655
			c0.294,0.361,0.737,0.676,1.318,0.938C44.145,57.204,45.614,57.215,46.568,56.624z M45.43,54.035c0,1.086-0.881,1.968-1.967,1.968
			s-1.967-0.882-1.967-1.968c0-1.086,0.881-1.966,1.967-1.966S45.43,52.949,45.43,54.035z"/>
		<path fill="#553285" d="M66.324,57.099c0.144-0.399,0.475-1.31,0.417-1.877c-0.047-0.022-0.11-0.046-0.202-0.084
			c-0.782-0.328-1.549-0.542-2.163-0.603c-1.187-0.118-2.373,0.286-3.117,1.065c-0.702,0.735-1.274,2.645-0.619,3.306
			c0.02,0.02,0.041,0.038,0.062,0.055c0.412,0.337,1.149,0.523,2.073,0.523c0.244,0,0.479-0.013,0.697-0.031
			c0.64-0.059,1.14-0.205,1.527-0.445C65.562,58.662,66.069,57.798,66.324,57.099z M65.517,56.595c0,1.086-0.88,1.968-1.966,1.968
			c-1.086,0-1.968-0.882-1.968-1.968c0-1.085,0.882-1.966,1.968-1.966C64.637,54.629,65.517,55.511,65.517,56.595z"/>
	</g>
</g>
</svg>
