<?xml version="1.0" encoding="utf-8"?>
<!-- Generator: Adobe Illustrator 16.0.0, SVG Export Plug-In . SVG Version: 6.00 Build 0)  -->
<!DOCTYPE svg PUBLIC "-//W3C//DTD SVG 1.1//EN" "http://www.w3.org/Graphics/SVG/1.1/DTD/svg11.dtd" [
	<!ENTITY ns_flows "http://ns.adobe.com/Flows/1.0/">
	<!ENTITY ns_extend "http://ns.adobe.com/Extensibility/1.0/">
	<!ENTITY ns_ai "http://ns.adobe.com/AdobeIllustrator/10.0/">
	<!ENTITY ns_graphs "http://ns.adobe.com/Graphs/1.0/">
]>
<svg version="1.1"
	 id="Слой_1" xmlns:x="&ns_extend;" xmlns:i="&ns_ai;" xmlns:graph="&ns_graphs;" xmlns:svgjs="http://svgjs.com/svgjs"
	 xmlns="http://www.w3.org/2000/svg" xmlns:xlink="http://www.w3.org/1999/xlink" xmlns:a="http://ns.adobe.com/AdobeSVGViewerExtensions/3.0/"
	 x="0px" y="0px" width="290.29px" height="67px" viewBox="0 0 290.29 67" enable-background="new 0 0 290.29 67"
	 xml:space="preserve">
<g id="SvgjsG1091" transform="translate(80.37000000476837,-192.37999725341797)" xmlns:name="main_text">
	<path d="M-5.9,237.072c-0.5-0.121-0.85-0.27-1.08-0.51c-0.24-0.189-0.39-0.66-0.51-1.391l-0.23-2.799h-3.5c0,0.109,0,0.539,0,1.279
		s0,1.52,0.04,2.369c0,0.891,0,1.711,0,2.451s0,1.199,0,1.4l1.32-0.041c0.58,0.041,1.13,0.08,1.56,0.15
		c0.42,0.08,0.81,0.16,1.24,0.24c0.43,0.07,0.85,0.15,1.32,0.189c0.43,0.08,1.01,0.119,1.67,0.119c1.32,0,2.57-0.199,3.77-0.549
		c1.2-0.35,2.25-0.811,3.15-1.471c0.89-0.66,1.59-1.439,2.09-2.369c0.51-0.941,0.78-1.98,0.78-3.15c0-0.891-0.11-1.711-0.39-2.369
		c-0.27-0.66-0.7-1.32-1.28-1.941c-0.58-0.618-1.36-1.249-2.25-1.868c-0.93-0.622-2.06-1.321-3.34-2.101
		c-1.01-0.62-1.83-1.16-2.45-1.59c-0.66-0.431-1.13-0.851-1.48-1.24s-0.58-0.78-0.7-1.17c-0.11-0.351-0.19-0.771-0.19-1.24
		c0-0.89,0.39-1.56,1.13-1.94c0.73-0.35,1.55-0.55,2.52-0.55c0.82,0,1.63,0.12,2.49,0.35c0.42,0.12,0.77,0.31,1.01,0.51
		c0.19,0.19,0.35,0.62,0.39,1.28l0.27,2.8h3.49c0-0.12,0-0.55,0-1.29c0-0.69,0-1.47,0-2.33c-0.03-0.81-0.03-1.63-0.03-2.37
		c0-0.73,0-1.2,0-1.4c-0.04,0-0.12,0-0.28,0c-0.15,0.04-0.31,0.04-0.5,0.04c-0.2,0-0.35,0-0.51,0c-0.19,0.04-0.31,0.04-0.35,0.04
		c-0.5-0.04-0.93-0.11-1.36-0.23c-0.42-0.08-0.89-0.16-1.32-0.27c-0.42-0.08-0.89-0.16-1.4-0.24c-0.5-0.03-1.08-0.07-1.71-0.07
		c-1.16,0-2.25,0.15-3.3,0.46c-1.05,0.35-1.98,0.82-2.76,1.4c-0.81,0.58-1.43,1.32-1.9,2.14c-0.47,0.81-0.7,1.75-0.7,2.761
		c0,0.93,0.16,1.75,0.47,2.479c0.31,0.739,0.77,1.399,1.36,1.989c0.58,0.621,1.32,1.201,2.21,1.782c0.89,0.59,1.91,1.25,3.03,1.909
		c0.97,0.539,1.79,1.049,2.41,1.469c0.62,0.432,1.13,0.861,1.52,1.281c0.35,0.43,0.62,0.9,0.77,1.33c0.12,0.459,0.2,1.01,0.2,1.59
		c0,0.539-0.12,1.01-0.35,1.4c-0.24,0.389-0.55,0.699-0.93,0.93c-0.39,0.229-0.82,0.389-1.33,0.5c-0.5,0.119-1.04,0.16-1.59,0.16
		C-4.22,237.383-5.08,237.262-5.9,237.072z M25.65,239.361c0-0.229,0-0.459,0-0.699c0-0.23,0-0.461,0-0.699
		c-0.04-0.191-0.208-0.5-0.583,0.834l-4.117-1.645c0-0.66,0-1.48,0-2.451c-0.04-0.93-0.04-1.898-0.04-2.879c0-0.971,0-1.939,0-2.83
		c0-0.899,0-1.589,0-2.14c0-0.54,0-1.2,0-1.98s0-1.591,0-2.49c0-0.89,0-1.78,0.04-2.681c0-0.889,0-1.75,0.04-2.479l3.65,0.03
		c0.51,0,0.82,0.08,1.01,0.28c0.16,0.19,0.24,0.5,0.28,0.89l0.23,3.5c0.27,0.04,0.54,0.07,0.81,0.07c0.24,0,0.51,0,0.78,0
		s0.55,0,0.82,0s0.54-0.03,0.81-0.07c0-0.12,0-0.59,0-1.359c0-0.74,0-1.601,0-2.491c-0.04-0.89-0.04-1.75-0.04-2.56
		c0-0.78,0-1.25,0-1.44l-3.45,0.19l-7.39,0.04l-7.18-0.04l-3.46-0.19c0,0.19,0,0.66,0,1.44c0,0.81,0,1.67,0,2.56
		c-0.04,0.89-0.04,1.75-0.04,2.491c0,0.77,0,1.239,0,1.359c0.27,0.04,0.58,0.07,0.85,0.07c0.28,0,0.55,0,0.82,0s0.54,0,0.82,0
		c0.23,0,0.46-0.03,0.73-0.07l0.24-3.38c0.08-0.82,0.46-1.25,1.12-1.25l3.66-0.07c0.04,0.54,0.04,1.24,0.07,2.13
		c0,0.9,0,1.83,0,2.759c0,0.971,0,1.871,0,2.721c0,0.891,0,1.59,0,2.1c0,0.43,0,1.09,0,1.94c0,0.898,0,1.828,0,2.799
		c-0.03,1.01-0.03,2.02-0.03,2.99c-0.04,0.971-0.08,1.83-0.12,2.49l-4.35,0.189c-0.04,0.201-0.04,0.43-0.04,0.66
		c-0.04,0.24-0.04,0.471-0.04,0.699c0,0.271,0,0.512,0.04,0.74c0,0.23,0,0.471,0.04,0.66c0.35,0,0.85,0,1.51,0
		c0.66,0,1.32,0,2.02-0.039c0.7,0,1.36,0,1.95,0c0.58,0,1.01,0,1.24,0h4.2c0.97,0,1.98,0,3.06,0.039
		C31.942,240.047,25.61,239.633,25.65,239.361z M51.96,240.223l4.89-14.111l5.011,14.111h3.928l8.039-23.08l2.182-0.16
		c0.039-0.19,0.039-0.39,0.039-0.62s0-0.47,0-0.7s0-0.46,0-0.74c0-0.23,0-0.46-0.039-0.66c-1.051,0-1.91,0-2.57,0
		c-0.701,0.04-1.281,0.04-1.781,0.04c-0.35,0-0.859,0-1.479-0.04c-0.621,0-1.24,0-1.83,0h-2.17c-0.041,0.2-0.041,0.43-0.041,0.66
		c0,0.28,0,0.51,0,0.74c0,0.27,0,0.51,0,0.7c0,0.23,0,0.47,0.041,0.66l3.959,0.2l-5.518,17.129l-5.86-17.169l3.14-0.16
		c0.041-0.19,0.041-0.43,0.041-0.66c0-0.19,0-0.43,0-0.7c0-0.23,0-0.46,0-0.74c0-0.23,0-0.46-0.041-0.66c-1.24,0-2.41,0-3.529,0
		c-1.131,0.04-1.98,0.04-2.49,0.04c-0.35,0-0.82,0-1.32-0.04c-0.51,0-1.01,0-1.52,0h-1.7c-0.04,0.2-0.04,0.43-0.04,0.66
		c0,0.28,0,0.51,0,0.74c0,0.27,0,0.51,0,0.7c0,0.23,0,0.47,0.04,0.66l2.399,0.12l1.641,4.66l-4.39,13.09l-6.1-17.71l3.41-0.16
		c0.04-0.19,0.04-0.43,0.04-0.66c0-0.19,0-0.43,0-0.7c0-0.23,0-0.46,0-0.74c0-0.23,0-0.46-0.04-0.66c-0.62,0-1.24,0-1.86,0
		c-0.66,0-1.24,0-1.79,0c-0.58,0.04-1.09,0.04-1.51,0.04c-0.43,0-0.78,0-1.01,0c-0.35,0-0.82,0-1.32-0.04c-0.51,0-1.01,0-1.52,0
		h-1.71c-0.04,0.2-0.04,0.43-0.04,0.66c-0.04,0.28-0.04,0.51-0.04,0.74c0,0.27,0,0.51,0.04,0.7c0,0.23,0,0.47,0.04,0.66l2.29,0.12
		l8.12,23.08H51.96z M85.908,236.531c-0.809-0.35-1.51-0.818-2.059-1.398c-0.541-0.59-0.93-1.25-1.201-2.021
		c-0.27-0.779-0.43-1.639-0.43-2.529h12.791v-0.93c0-0.9-0.121-1.938-0.32-3.069c-0.189-1.131-0.58-2.221-1.16-3.26
		c-0.58-1.051-1.4-1.91-2.451-2.61c-1.049-0.7-2.449-1.05-4.119-1.05c-1.359,0-2.6,0.24-3.73,0.74c-1.16,0.51-2.17,1.24-3.029,2.22
		c-0.85,0.97-1.51,2.17-2.02,3.53c-0.5,1.401-0.74,2.99-0.74,4.74c0,1.52,0.24,2.84,0.699,4c0.43,1.209,1.09,2.219,1.951,3.029
		c0.809,0.82,1.818,1.48,3.029,1.91c1.16,0.43,2.48,0.66,3.92,0.66c0.93,0,1.869-0.119,2.76-0.35s1.67-0.51,2.33-0.781
		c0.82-0.309,1.551-0.66,2.25-1.09l-0.77-2.52c-0.9,0.5-1.83,0.811-2.76,1.01c-0.93,0.189-1.631,0.27-2.1,0.27
		C87.658,237.031,86.728,236.883,85.908,236.531z M88.048,222.932c0.43,0.27,0.82,0.66,1.09,1.12c0.27,0.511,0.5,1.05,0.621,1.71
		c0.119,0.661,0.189,1.362,0.189,2.1h-7.609c0.119-1.049,0.27-1.9,0.539-2.6c0.279-0.66,0.59-1.21,0.971-1.63
		c0.35-0.39,0.779-0.659,1.209-0.86c0.43-0.149,0.891-0.229,1.361-0.229C87.078,222.543,87.619,222.663,88.048,222.932z
		 M103.898,223.983c0.471-0.281,0.971-0.471,1.48-0.66c0.5-0.16,0.971-0.24,1.48-0.24c0.93,0,1.709,0.199,2.369,0.55
		c0.621,0.38,1.121,0.931,1.51,1.591c0.391,0.659,0.66,1.44,0.861,2.331c0.15,0.889,0.229,1.897,0.229,2.948
		c0,2.221-0.43,3.93-1.318,5.211c-0.9,1.279-2.182,1.898-3.811,1.898c-0.43,0-0.93-0.068-1.51-0.229
		c-0.59-0.16-1.02-0.352-1.33-0.541c0-0.59,0-1.289,0-2.1c0-0.82,0-1.631,0.039-2.49c0-0.811,0-1.629,0-2.41c0-0.77,0-1.429,0-1.979
		V223.983z M102.189,240.022c1.25,0.311,2.57,0.471,4.01,0.471c1.359,0,2.68-0.23,3.959-0.74c1.24-0.471,2.33-1.17,3.301-2.141
		c0.971-0.969,1.711-2.17,2.291-3.609c0.59-1.439,0.859-3.15,0.859-5.051c0-1.169-0.16-2.288-0.471-3.419
		c-0.35-1.129-0.811-2.1-1.439-2.989c-0.621-0.86-1.391-1.56-2.33-2.101c-0.93-0.5-2.02-0.779-3.221-0.779
		c-1.049,0-2.02,0.199-2.92,0.59c-0.93,0.42-1.709,0.891-2.369,1.391c0-0.931,0-1.861,0-2.831c0-0.97,0-1.87,0.039-2.76
		c0-0.89,0-1.71,0.041-2.53c0-0.77,0-1.47,0-2.09c-0.311,0.04-0.811,0.07-1.551,0.11s-1.48,0.12-2.289,0.16
		c-0.82,0.08-1.561,0.15-2.301,0.19c-0.74,0.08-1.24,0.12-1.549,0.16c-0.041,0.19-0.041,0.39-0.041,0.58
		c-0.039,0.23-0.039,0.47-0.039,0.7s0,0.47,0.039,0.66c0,0.2,0,0.39,0.041,0.58l2.988,0.43c0.041,0.51,0.041,1.28,0.041,2.29
		c0,1.05,0,2.1,0,3.229v5.521c0,2.05,0,4.19,0,6.409c0,2.211,0,4.391-0.041,6.451C99.978,239.361,100.949,239.752,102.189,240.022z
		 M136.808,237.152c-0.5-0.041-1.049-0.041-1.629-0.08c-0.041-1.01-0.041-1.98-0.041-2.91c0-0.9,0-1.869,0-2.881v-8.659
		c0-0.08,0-0.31,0-0.74c0-0.39,0-0.86,0-1.399c0-0.51,0-1.09,0.041-1.67c0-0.58,0-1.09,0-1.52h2.99c1.52,0,2.92,0.16,4.199,0.43
		c1.279,0.31,2.41,0.82,3.381,1.55c0.93,0.74,1.67,1.75,2.209,3.041c0.551,1.279,0.82,2.91,0.82,4.889c0,3.3-0.82,5.79-2.41,7.46
		s-4.27,2.529-7.971,2.529C137.818,237.192,137.318,237.192,136.808,237.152z M145.548,239.172c1.91-0.74,3.5-1.709,4.74-2.959
		c1.211-1.24,2.1-2.682,2.68-4.352c0.59-1.629,0.859-3.34,0.859-5.128c0-4.071-1.279-7.181-3.85-9.321
		c-2.559-2.1-6.449-3.15-11.609-3.15c-0.98,0.04-1.99,0.04-3,0.04c-1.051,0-2.02,0-2.949,0c-0.271,0-0.621,0-1.051,0
		s-0.93,0-1.439-0.04c-0.5,0-1.041,0-1.59,0c-0.541,0-1.051,0-1.512,0c-0.039,0.2-0.039,0.43-0.039,0.66
		c-0.039,0.28-0.039,0.51-0.039,0.74c0,0.27,0,0.51,0.039,0.7c0,0.23,0,0.47,0.039,0.66c0.07,0,0.271,0,0.621,0
		c0.311,0.04,0.66,0.04,1.051,0.04c0.35,0.04,0.699,0.04,1.049,0.04c0.35,0.04,0.58,0.04,0.701,0.04
		c0.029,0.5,0.029,1.16,0.068,2.06c0,0.89,0,1.82,0,2.791c0,0.98,0,1.91,0,2.8c0,0.899,0,1.63,0,2.14c0,0.43,0,1.09,0,1.979
		c0,0.891,0,1.83,0,2.84c-0.039,1.01-0.039,2.02-0.039,2.99c-0.029,1.01-0.07,1.859-0.109,2.52l-3.42,0.121
		c-0.041,0.189-0.041,0.43-0.041,0.619c-0.039,0.24-0.039,0.471-0.039,0.699c0,0.23,0,0.471,0.039,0.701c0,0.27,0,0.51,0.041,0.699
		c0.35,0,0.779,0,1.318,0c0.541,0,1.131,0,1.711-0.039c0.58,0,1.129,0,1.629,0c0.512,0,0.861,0,1.131,0
		c1.24,0.039,2.41,0.08,3.529,0.119c1.09,0.08,1.951,0.111,2.531,0.111C141.318,240.293,143.648,239.912,145.548,239.172z
		 M165.058,236.531c-0.82-0.35-1.52-0.818-2.059-1.398c-0.551-0.59-0.932-1.25-1.211-2.021c-0.27-0.779-0.42-1.639-0.42-2.529
		h12.779v-0.93c0-0.9-0.119-1.938-0.309-3.069c-0.201-1.131-0.58-2.221-1.17-3.26c-0.58-1.051-1.4-1.91-2.451-2.61
		c-1.039-0.7-2.439-1.05-4.109-1.05c-1.359,0-2.609,0.24-3.73,0.74c-1.17,0.51-2.18,1.24-3.029,2.22
		c-0.861,0.97-1.521,2.17-2.021,3.53c-0.51,1.401-0.738,2.99-0.738,4.74c0,1.52,0.229,2.84,0.699,4
		c0.42,1.209,1.08,2.219,1.939,3.029c0.82,0.82,1.83,1.48,3.031,1.91c1.17,0.43,2.49,0.66,3.92,0.66c0.939,0,1.869-0.119,2.76-0.35
		c0.9-0.23,1.67-0.51,2.33-0.781c0.82-0.309,1.559-0.66,2.26-1.09l-0.779-2.52c-0.891,0.5-1.83,0.811-2.762,1.01
		c-0.93,0.189-1.629,0.27-2.1,0.27C166.808,237.031,165.869,236.883,165.058,236.531z M167.189,222.932
		c0.43,0.27,0.82,0.66,1.09,1.12c0.27,0.511,0.51,1.05,0.619,1.71c0.121,0.661,0.201,1.362,0.201,2.1h-7.621
		c0.121-1.049,0.271-1.9,0.551-2.6c0.27-0.66,0.58-1.21,0.971-1.63c0.35-0.39,0.779-0.659,1.199-0.86
		c0.43-0.149,0.9-0.229,1.359-0.229C166.218,222.543,166.769,222.663,167.189,222.932z M187.199,234.893
		c-0.621-1.43-1.16-2.75-1.631-3.92c-0.5-1.17-0.889-2.25-1.24-3.229c-0.35-0.971-0.658-1.821-0.898-2.6
		c-0.23-0.781-0.42-1.511-0.621-2.17l2.141-0.08c0.039-0.201,0.039-0.391,0.039-0.621c0-0.199,0-0.43,0-0.699c0-0.24,0-0.471,0-0.7
		c0-0.24,0-0.47-0.039-0.66h-1.75c-0.5,0-1.01,0-1.51,0c-0.551,0.04-1.01,0.04-1.4,0.04c-0.27,0-0.58,0-1.01,0s-0.859,0-1.279-0.04
		c-0.471,0-0.9,0-1.33,0c-0.42,0-0.811,0-1.08,0c-0.041,0.19-0.041,0.42-0.041,0.66c0,0.229,0,0.46,0,0.7c0,0.229,0,0.459,0,0.66
		c0,0.229,0,0.459,0.041,0.66l2.369,0.149l6.721,17.219h3.729l6.182-17.289l2.439-0.121c0-0.189,0-0.39,0.039-0.619
		c0-0.24,0-0.471,0-0.701c0-0.229,0-0.469,0-0.699c-0.039-0.2-0.039-0.43-0.039-0.62h-1.59c-0.43,0-0.891,0-1.4,0
		c-0.5,0.04-0.971,0.04-1.359,0.04c-0.5,0-1.16,0-1.98-0.04c-0.82,0-1.551,0-2.211,0c-0.039,0.19-0.039,0.42-0.039,0.66
		c0,0.229,0,0.46,0,0.7c0,0.229,0,0.459,0,0.66c0,0.229,0,0.459,0.039,0.66l2.371,0.149L187.199,234.893z"/>
</g>
<g id="SvgjsG1092" transform="translate(0,0) scale(0.67)" xmlns:name="symbol_mainfill">
	<path fill="#79BD8F" d="M99.518,43.136c-0.246-1.773-0.578-3.517-1.004-5.228c-1.222-4.899-3.161-9.517-5.711-13.728
		c-1.104-1.824-2.331-3.564-3.651-5.227C79.983,7.418,65.847,0,50,0C34.154,0,20.016,7.418,10.849,18.955
		c-1.321,1.662-2.547,3.403-3.65,5.228c-2.55,4.211-4.491,8.828-5.712,13.728c-0.426,1.709-0.759,3.454-1.003,5.227
		C0.173,45.381,0,47.67,0,50c0,2.329,0.173,4.619,0.483,6.864c0.245,1.774,0.578,3.518,1.003,5.228
		c1.222,4.899,3.162,9.516,5.712,13.727c1.104,1.825,2.33,3.565,3.65,5.228C20.016,92.581,34.154,100,50,100
		s29.984-7.419,39.152-18.954c1.32-1.663,2.547-3.402,3.651-5.228c2.549-4.211,4.489-8.828,5.711-13.729
		c0.426-1.708,0.759-3.453,1.004-5.227C99.827,54.618,100,52.329,100,50S99.827,45.381,99.518,43.136z M35.97,7.49
		c-2.589,3.048-4.86,6.931-6.727,11.464h-11.46C22.773,13.778,28.993,9.799,35.97,7.49z M13.455,24.181h13.907
		c-1.308,4.198-2.299,8.811-2.918,13.728H6.898C8.297,32.929,10.536,28.3,13.455,24.181z M5.227,50c0-2.333,0.181-4.625,0.526-6.864
		h18.183c-0.155,2.24-0.242,4.529-0.242,6.864s0.087,4.623,0.242,6.864H5.753C5.407,54.625,5.227,52.335,5.227,50z M13.455,75.818
		c-2.918-4.119-5.158-8.747-6.557-13.729h17.544c0.62,4.918,1.611,9.529,2.918,13.729H13.455z M17.784,81.046h11.46
		c1.866,4.533,4.139,8.416,6.727,11.464C28.993,90.199,22.774,86.223,17.784,81.046z M47.387,94.399
		c-4.792-1.323-9.14-6.221-12.411-13.353h12.411C47.387,86.967,47.387,91.604,47.387,94.399z M47.387,75.818H32.91
		c-1.404-4.134-2.487-8.769-3.168-13.729h17.646C47.387,67.027,47.387,71.648,47.387,75.818z M47.387,50c0,2.332,0,4.623,0,6.864
		H29.181C29.01,54.62,28.919,52.326,28.919,50c0-2.328,0.09-4.62,0.262-6.864h18.206C47.387,45.377,47.387,47.667,47.387,50z
		 M47.387,37.909H29.741c0.681-4.96,1.765-9.595,3.168-13.728h14.479C47.387,28.35,47.387,32.97,47.387,37.909z M47.387,18.955
		H34.976C38.248,11.82,42.595,6.925,47.387,5.6C47.387,8.395,47.387,13.034,47.387,18.955z M86.545,24.181
		c2.919,4.119,5.157,8.748,6.557,13.728H75.558c-0.621-4.917-1.611-9.53-2.919-13.728H86.545z M82.217,18.955h-11.46
		c-1.866-4.534-4.14-8.417-6.727-11.464C71.007,9.799,77.227,13.778,82.217,18.955z M52.613,5.6
		c4.793,1.325,9.14,6.22,12.411,13.354H52.613V5.6z M52.613,24.181H67.09c1.405,4.133,2.488,8.768,3.169,13.728H52.613V24.181z
		 M52.613,43.136h18.206c0.17,2.244,0.261,4.536,0.261,6.864s-0.091,4.62-0.261,6.864H52.613V43.136z M52.613,62.089h17.647
		c-0.681,4.961-1.764,9.596-3.169,13.73H52.613V62.089z M52.613,94.399V81.046h12.411C61.753,88.179,57.406,93.074,52.613,94.399z
		 M64.03,92.51c2.587-3.048,4.86-6.931,6.727-11.464h11.46C77.226,86.222,71.007,90.199,64.03,92.51z M86.545,75.818H72.638
		c1.309-4.198,2.299-8.811,2.92-13.729h17.544C91.702,67.071,89.464,71.699,86.545,75.818z M94.247,56.862H76.063
		c0.156-2.24,0.243-4.527,0.243-6.863c0-2.334-0.087-4.623-0.243-6.864h18.184c0.346,2.238,0.526,4.53,0.526,6.864
		C94.773,52.335,94.593,54.625,94.247,56.862z"/>
</g>
</svg>
