<?xml version="1.0" encoding="utf-8"?>
<!-- Generator: Adobe Illustrator 16.0.0, SVG Export Plug-In . SVG Version: 6.00 Build 0)  -->
<!DOCTYPE svg PUBLIC "-//W3C//DTD SVG 1.1//EN" "http://www.w3.org/Graphics/SVG/1.1/DTD/svg11.dtd" [
	<!ENTITY ns_flows "http://ns.adobe.com/Flows/1.0/">
	<!ENTITY ns_extend "http://ns.adobe.com/Extensibility/1.0/">
	<!ENTITY ns_ai "http://ns.adobe.com/AdobeIllustrator/10.0/">
	<!ENTITY ns_graphs "http://ns.adobe.com/Graphs/1.0/">
]>
<svg version="1.1"
	 id="Слой_1" xmlns:x="&ns_extend;" xmlns:i="&ns_ai;" xmlns:graph="&ns_graphs;" xmlns:svgjs="http://svgjs.com/svgjs"
	 xmlns="http://www.w3.org/2000/svg" xmlns:xlink="http://www.w3.org/1999/xlink" xmlns:a="http://ns.adobe.com/AdobeSVGViewerExtensions/3.0/"
	 x="0px" y="0px" width="253.76px" height="149.453px" viewBox="0 0 253.76 149.453" enable-background="new 0 0 253.76 149.453"
	 xml:space="preserve">
<g id="SvgjsG4244" transform="translate(80.1925687789917,-112.84637451171875)" xmlns:name="main_text">
	<path d="M9.73,156.44c-0.667-0.927-1.594-2.02-2.78-3.28c-1.193-1.253-2.12-2.276-2.779-3.07c-0.66-0.8-1.257-1.727-1.79-2.78
		c-0.527-1.06-0.69-2.054-0.49-2.98c0.193-0.926,0.687-1.92,1.479-2.979c3.313-4.1,7.12-7.607,11.42-10.521
		c4.301-2.906,9.063-5.223,14.29-6.95c5.227-1.72,10.057-3.107,14.49-4.16c4.434-1.06,9.823-2.187,16.17-3.38
		c6.354-1.187,11.384-2.243,15.09-3.17c2.647-0.667,5.227-0.303,7.74,1.09c2.514,1.387,4.233,3.207,5.16,5.46
		c1.06,2.38,0.563,4.597-1.49,6.65c-2.047,2.047-4.394,3.4-7.04,4.06c-4.24,1.593-11.587,3.117-22.04,4.57
		c-10.453,1.453-18.26,3.57-23.42,6.35c-3.04,1.72-4.163,3.506-3.37,5.36c2.514,3.707,5.887,7.477,10.12,11.31
		c4.233,3.84,8.403,7.083,12.51,9.73c4.101,2.646,8.367,5.723,12.801,9.23c4.433,3.506,7.973,6.813,10.62,9.92
		c2.646,3.113,4.729,6.953,6.25,11.521c1.52,4.56,1.42,9.355-0.301,14.39c-1.854,6.747-5.59,12.337-11.21,16.77
		c-5.626,4.434-12.013,7.41-19.16,8.931c-7.14,1.52-14.583,1.949-22.329,1.289c-7.74-0.66-14.721-2.446-20.94-5.359
		c-5.16-2.646-6.88-6.684-5.16-12.11c1.72-5.42,5.227-9.323,10.521-11.71c2.119-0.393,4.006,0.733,5.659,3.381
		c1.653,2.646,3.011,4.1,4.07,4.359c0.793,0.133,2.743,0.334,5.851,0.6c3.113,0.268,5.529,0.797,7.25,1.59
		c2.113,0.928,4.363,1.357,6.75,1.291c2.38-0.067,4.133-0.268,5.26-0.601c1.12-0.327,3.27-1.22,6.45-2.68
		c3.173-1.454,4.96-2.247,5.359-2.38c4.233-3.307,4.96-7.674,2.181-13.101c-5.027-6.479-13.86-14.22-26.5-23.22
		C23.787,170.86,14.89,163.053,9.73,156.44z M123.06,239.6c-2.113,0.793-3.9,0.463-5.36-0.99c-1.453-1.453-2.246-3.04-2.38-4.76
		c-0.66-11.914,0.134-28.95,2.38-51.11c2.254-22.167,3.38-38.013,3.38-47.54c0-0.927-0.233-1.59-0.699-1.99
		c-0.46-0.394-1.12-0.523-1.98-0.39s-1.62,0.33-2.28,0.59c-0.666,0.267-1.529,0.597-2.59,0.99c-1.053,0.4-1.78,0.667-2.18,0.8
		c-0.794,0.133-3.474,1.224-8.04,3.27c-4.561,2.053-7.967,2.55-10.22,1.49c-3.307-1.454-4.827-3.967-4.561-7.54
		c0.26-3.573,2.11-6.22,5.55-7.94c7.147-3.573,13.863-6.22,20.15-7.94c6.286-1.72,12.043-2.646,17.27-2.78
		c5.228-0.133,11.113-0.2,17.66-0.2c6.554,0,13.601-0.13,21.141-0.39c0.267,0,0.566,0.23,0.899,0.69
		c0.327,0.467,0.69,1.03,1.09,1.69c0.394,0.66,0.657,1.124,0.79,1.39c0.927,2.78,0.53,5.327-1.189,7.64
		c-1.721,2.313-4.167,4-7.34,5.06c-5.294,1.06-9,1.59-11.12,1.59c-2.113,0-5.487,0.066-10.12,0.2
		c-4.767,23.287-7.68,56.104-8.74,98.45C134.57,233.186,130.733,236.426,123.06,239.6z"/>
</g>
<g id="SvgjsG4245" transform="translate(103.32462310791016,-90.76666259765625)" xmlns:name="slogan_text">
	<path d="M9.24,240.069h1.2l3.95-11.84h-1.78c-0.88,2.681-1.899,5.69-2.83,8.49l-1.909-5.48H6.51l-1.94,5.5l-2.81-8.51H0
		l3.949,11.84h1.19c0.61-1.779,1.37-3.75,2.04-5.67L9.24,240.069z M17.41,234.97h5.33v-1.71h-5.33v-3.31h5.45v-1.7H15.7V240h7.181
		v-1.7H17.41V234.97z M26.12,229.86h3.21c1.85,0,1.819,3.06-0.03,3.06h-3.18V229.86z M24.44,228.25V240h5.311
		c2.25,0,3.409-1.78,3.409-3.55c0-1.11-0.479-2.35-1.829-2.92c1.18-0.84,1.329-2.19,0.859-3.351c-0.439-1.09-1.38-1.93-2.859-1.93
		H24.44z M26.12,234.601h3.63c1.14,0,1.72,0.949,1.72,1.869s-0.58,1.881-1.72,1.881h-3.63V234.601z M40.64,238.3v-8.35h2.53
		c2.72,0,4.1,2.1,4.1,4.18c0,2.09-1.38,4.17-4.1,4.17H40.64z M38.95,228.25V240h4.221c3.84,0,5.779-2.92,5.779-5.87
		c0-2.939-1.939-5.88-5.779-5.88H38.95z M52.33,234.97h5.319v-1.71H52.33v-3.31h5.439v-1.7h-7.16V240h7.181v-1.7h-5.46V234.97z
		 M64.06,237.04l-3.5-8.811h-1.85l4.729,11.801h1.24l4.72-11.801h-1.81L64.06,237.04z M72.4,234.97h5.32v-1.71H72.4v-3.31h5.44v-1.7
		h-7.16V240h7.18v-1.7H72.4V234.97z M81.19,228.23h-1.7V240h7.23v-1.649h-5.53V228.23z M98.35,234.12c0,1.22-0.49,2.3-1.26,3.07
		c-0.811,0.81-1.9,1.299-3.08,1.299c-1.17,0-2.25-0.489-3.04-1.299c-0.79-0.771-1.28-1.86-1.28-3.07s0.49-2.311,1.28-3.08
		c0.79-0.811,1.87-1.29,3.04-1.29c1.18,0,2.27,0.479,3.08,1.29C97.86,231.81,98.35,232.89,98.35,234.12z M87.96,234.12
		c0,1.68,0.689,3.189,1.77,4.3c1.09,1.13,2.62,1.8,4.28,1.8c1.68,0,3.2-0.67,4.31-1.8c1.07-1.11,1.761-2.62,1.761-4.3
		s-0.69-3.2-1.761-4.311c-1.109-1.109-2.63-1.789-4.31-1.789c-1.66,0-3.19,0.68-4.28,1.789C88.65,230.92,87.96,232.44,87.96,234.12z
		 M101.78,228.23V240h1.71v-3.92h2.591c2.54,0,3.819-1.95,3.819-3.91c0-1.97-1.279-3.94-3.819-3.94H101.78z M103.49,234.399v-4.449
		h2.591c1.43,0,2.14,1.109,2.14,2.229c0,1.11-0.71,2.22-2.14,2.22H103.49z M113.22,234.97h5.33v-1.71h-5.33v-3.31h5.45v-1.7h-7.16
		V240h7.18v-1.7h-5.47V234.97z M122.62,234.84l4.289,5.16h2.2l-3.72-4.42c2.02-0.351,3.05-1.931,3.05-3.601
		c0-1.859-1.28-3.75-3.84-3.75h-4.28V240H122v-10.05h2.6c1.43,0,2.14,1.02,2.14,2.029c0,1.03-0.71,2.051-2.14,2.051h-1.979V234.84z"
		/>
</g>
<g id="SvgjsG4246" transform="translate(-22.44499616622925,17.42771310806274) scale(1.1166666666666667)" xmlns:name="symbol_mainfill">
	<g>
		<path d="M80.1,33.1C80.1,33,80,33,80.1,33.1C80,33,79.9,32.9,79.8,32.9l-0.1-0.1L51.6,13.1c-0.7-0.5-1.5-0.5-2.199,0L21,32.8
			l-0.1,0.1c-0.1,0-0.1,0.1-0.2,0.1c-0.1,0.1-0.1,0.1-0.199,0.2c0,0.1-0.101,0.1-0.101,0.2c-0.1,0.1-0.1,0.2-0.1,0.3
			c0,0.1,0,0.1-0.1,0.2c0,0.2-0.101,0.3-0.101,0.5v33.8c0,0.6,0.3,1.2,0.8,1.6l28.3,19.7c0,0,0.1,0,0.1,0.1L49.4,89.7h0.1
			c0.3,0.101,0.5,0.2,0.8,0.2c0.2,0,0.4,0,0.5-0.1c0.1,0,0.1,0,0.199-0.101c0.101,0,0.101,0,0.2-0.101l0.1-0.1
			c0,0,0.101,0,0.101-0.1l28.2-20.001C79.8,69.2,80,69.1,80.1,68.9V33.1z M48.6,84.2l-24.5-17V38.1l9.3,6.5l15.2,10.601V84.2z
			 M50.5,51.8L33.5,40l-8-5.6l25-17.4l24.9,17.4L50.5,51.8z"/>
	</g>
</g>
</svg>
