<svg xmlns="http://www.w3.org/2000/svg" style="display:none"><symbol id="facebook" viewBox="0 0 512.002 512.002"><circle cx="256.001" cy="256" r="256" fill="#4e598f"/><path d="M511.596 241.7L391.019 121.085c-1.998.605-6.982-1.714-9.173-1.274-51.717 8.62-101.71 0-151.704 13.791-24.135 6.896-25.859 36.202-34.478 55.165-12.067 34.478-10.343 72.404-25.859 105.158-10.343 22.411-34.478 36.202-43.098 62.061-2.875 10.785-2.705 24.379-5.956 34.69l120.98 120.922c4.725.26 9.48.403 14.269.403 141.384 0 256-114.616 256-256 .001-4.8-.142-9.567-.404-14.301z" fill="#364270"/><g fill="#fff"><path d="M363.043 109.466H148.958c-21.809 0-39.49 17.68-39.49 39.49v214.085c0 21.811 17.68 39.49 39.49 39.49h105.584l.183-104.722h-27.21a6.418 6.418 0 0 1-6.418-6.396l-.133-33.759a6.422 6.422 0 0 1 6.42-6.444h27.162v-32.618c0-37.852 23.118-58.463 56.884-58.463h27.71a6.421 6.421 0 0 1 6.42 6.42v28.463a6.419 6.419 0 0 1-6.416 6.42l-17.006.01c-18.363 0-21.921 8.725-21.921 21.533v28.239h40.351c3.848 0 6.83 3.358 6.375 7.173l-4.001 33.759a6.418 6.418 0 0 1-6.375 5.665h-36.168l-.183 104.726h62.826c21.809 0 39.49-17.682 39.49-39.491v-214.09c.001-21.809-17.68-39.49-39.489-39.49z"/><path d="M254.542 402.53l.183-104.722h-.448V402.53z"/></g><path d="M363.043 109.466H254.277v141.741h.269V218.59c0-37.852 23.118-58.463 56.884-58.463h27.71a6.421 6.421 0 0 1 6.42 6.42v28.463a6.419 6.419 0 0 1-6.416 6.42l-17.006.01c-18.363 0-21.921 8.725-21.921 21.533v28.238h40.351c3.848 0 6.83 3.358 6.375 7.173l-4.001 33.759a6.418 6.418 0 0 1-6.375 5.665h-36.168l-.183 104.726h62.826c21.809 0 39.49-17.682 39.49-39.491V148.956c.001-21.809-17.68-39.49-39.489-39.49z" fill="#d1d1d1"/></symbol><symbol id="filter-icon" viewBox="0 0 271.673 271.673"><path d="M10.449 0h104.49c5.771 0 10.449 4.678 10.449 10.449v104.49c0 5.771-4.678 10.449-10.449 10.449H10.449C4.678 125.388 0 120.71 0 114.939V10.449C0 4.678 4.678 0 10.449 0zM156.735 0h104.49c5.771 0 10.449 4.678 10.449 10.449v104.49c0 5.771-4.678 10.449-10.449 10.449h-104.49c-5.771 0-10.449-4.678-10.449-10.449V10.449C146.286 4.678 150.964 0 156.735 0zM10.449 146.286h104.49c5.771 0 10.449 4.678 10.449 10.449v104.49c0 5.771-4.678 10.449-10.449 10.449H10.449C4.678 271.673 0 266.995 0 261.224v-104.49c0-5.77 4.678-10.448 10.449-10.448zM156.735 146.286h104.49c5.771 0 10.449 4.678 10.449 10.449v104.49c0 5.771-4.678 10.449-10.449 10.449h-104.49c-5.771 0-10.449-4.678-10.449-10.449v-104.49c0-5.771 4.678-10.449 10.449-10.449z"/></symbol><symbol id="google-plus" viewBox="0 0 512 512"><circle cx="256" cy="256" r="256" fill="#cf4c3c"/><path d="M372.97 215.509l-36.521 43.939-68.763-71.518h-95.008l-38.453 41.637v89.912L318.85 504.217c83.594-21.102 150.816-83.318 178.916-163.887L372.97 215.509z" fill="#ad3228"/><path d="M212.289 275.344h45.789c-8.037 22.721-29.806 39.012-55.287 38.826-30.92-.228-56.491-24.964-57.689-55.863-1.286-33.12 25.285-60.478 58.123-60.478 15.017 0 28.72 5.723 39.05 15.098 2.448 2.22 6.17 2.236 8.578-.031l16.818-15.825c2.631-2.476 2.639-6.658.016-9.14-16.382-15.524-38.359-25.198-62.595-25.669-51.69-1.012-95.261 41.37-95.62 93.07-.365 52.09 41.75 94.429 93.753 94.429 50.014 0 90.869-39.159 93.605-88.485.072-.619.121-21.52.121-21.52H212.29a6.282 6.282 0 0 0-6.282 6.282v23.024a6.281 6.281 0 0 0 6.281 6.282z" fill="#fff"/><path d="M374.531 241.847V219.35a5.502 5.502 0 0 0-5.504-5.504h-18.934a5.504 5.504 0 0 0-5.506 5.504v22.497h-22.492a5.508 5.508 0 0 0-5.51 5.506v18.932a5.51 5.51 0 0 0 5.51 5.506h22.492v22.494a5.505 5.505 0 0 0 5.506 5.506h18.934a5.504 5.504 0 0 0 5.504-5.506v-22.494h22.497a5.508 5.508 0 0 0 5.506-5.506v-18.932a5.507 5.507 0 0 0-5.506-5.506h-22.497z" fill="#d1d1d1"/></symbol><symbol id="linkedin" viewBox="0 0 512.002 512.002"><circle cx="256.001" cy="256" r="256" fill="#4376b1"/><path d="M511.016 233.634L394.729 117.198c-71.035 9.237-145.27 7.859-216.305 9.511-29.306 0-58.613 13.791-53.441 46.545 10.343 65.508 15.515 129.293 3.448 196.525-1.9 8.545-5.897 17.089-11.117 25.059L233.48 511.005c7.421.646 14.929.996 22.519.996 141.384 0 256-114.616 256-256 .002-7.54-.343-14.996-.983-22.367z" fill="#369"/><path d="M376.023 109.468H135.979c-14.643 0-26.51 11.867-26.51 26.51V376.02c0 14.639 11.867 26.51 26.51 26.51h240.042c14.639 0 26.51-11.871 26.51-26.51V135.978c.002-14.643-11.869-26.51-26.508-26.51zM200.155 362.517a7.714 7.714 0 0 1-7.716 7.716h-32.837a7.715 7.715 0 0 1-7.716-7.716V224.856a7.715 7.715 0 0 1 7.716-7.716h32.839a7.715 7.715 0 0 1 7.716 7.716v137.661h-.002zM176.02 204.162c-17.23 0-31.196-13.969-31.196-31.201 0-17.229 13.965-31.196 31.196-31.196 17.232 0 31.198 13.969 31.198 31.196 0 17.234-13.967 31.201-31.198 31.201zm195.753 158.977a7.094 7.094 0 0 1-7.09 7.096h-35.242a7.095 7.095 0 0 1-7.092-7.096v-64.574c0-9.63 2.826-42.21-25.172-42.21-21.719 0-26.124 22.3-27.008 32.304v74.478a7.095 7.095 0 0 1-7.094 7.096h-34.082a7.097 7.097 0 0 1-7.096-7.096V224.234a7.097 7.097 0 0 1 7.096-7.096h34.082a7.095 7.095 0 0 1 7.094 7.096v12.009c8.054-12.085 20.023-21.416 45.502-21.416 56.425 0 56.105 52.717 56.105 81.686v66.627h-.003z" fill="#fff"/><path d="M376.023 109.468H255.427v107.67h7.647a7.095 7.095 0 0 1 7.094 7.096v12.009c8.054-12.085 20.023-21.416 45.503-21.416 56.425 0 56.105 52.717 56.105 81.686v66.625a7.094 7.094 0 0 1-7.09 7.096h-35.242a7.095 7.095 0 0 1-7.092-7.096v-64.574c0-9.63 2.826-42.21-25.172-42.21-21.719 0-26.124 22.3-27.008 32.304v74.478a7.095 7.095 0 0 1-7.094 7.096h-7.647v32.301h120.596c14.639 0 26.51-11.871 26.51-26.51V135.978c-.004-14.643-11.875-26.51-26.514-26.51z" fill="#d1d1d1"/></symbol><symbol id="logo" viewBox="0 0 253.76 149.453"><path d="M89.923 43.594c-.667-.927-1.594-2.02-2.78-3.28-1.193-1.253-2.12-2.276-2.78-3.07a14.98 14.98 0 0 1-1.79-2.78c-.526-1.06-.69-2.054-.49-2.98.194-.926.688-1.92 1.48-2.98a52.442 52.442 0 0 1 11.42-10.52c4.3-2.906 9.063-5.223 14.29-6.95 5.227-1.72 10.057-3.107 14.49-4.16 4.434-1.06 9.823-2.187 16.17-3.38 6.354-1.187 11.384-2.243 15.09-3.17 2.647-.667 5.227-.303 7.74 1.09 2.514 1.387 4.233 3.207 5.16 5.46 1.06 2.38.563 4.597-1.49 6.65-2.047 2.047-4.394 3.4-7.04 4.06-4.24 1.593-11.587 3.117-22.04 4.57-10.453 1.453-18.26 3.57-23.42 6.35-3.04 1.72-4.163 3.506-3.37 5.36 2.514 3.707 5.887 7.477 10.12 11.31 4.233 3.84 8.403 7.083 12.51 9.73 4.1 2.646 8.367 5.723 12.8 9.23 4.434 3.506 7.974 6.813 10.62 9.92 2.647 3.113 4.73 6.953 6.25 11.52 1.52 4.56 1.42 9.356-.3 14.39-1.854 6.748-5.59 12.338-11.21 16.77-5.626 4.435-12.013 7.41-19.16 8.932-7.14 1.52-14.583 1.949-22.33 1.289-7.74-.66-14.72-2.446-20.94-5.36-5.16-2.645-6.88-6.683-5.16-12.11 1.72-5.42 5.228-9.322 10.522-11.71 2.119-.392 4.006.734 5.659 3.382 1.653 2.646 3.01 4.1 4.07 4.359.793.133 2.743.334 5.85.6 3.114.268 5.53.797 7.25 1.59 2.114.928 4.364 1.357 6.75 1.29 2.38-.066 4.134-.267 5.26-.6 1.12-.327 3.27-1.22 6.45-2.68 3.174-1.454 4.96-2.247 5.36-2.38 4.233-3.307 4.96-7.674 2.18-13.101-5.026-6.48-13.86-14.22-26.5-23.22-12.634-9.001-21.531-16.808-26.691-23.421zm113.33 83.16c-2.113.793-3.9.463-5.36-.99-1.453-1.453-2.246-3.04-2.38-4.76-.66-11.914.134-28.95 2.38-51.11 2.254-22.167 3.38-38.013 3.38-47.54 0-.927-.233-1.59-.7-1.99-.46-.394-1.12-.523-1.98-.39s-1.62.33-2.28.59c-.665.267-1.528.597-2.59.99-1.052.4-1.78.667-2.18.8-.793.133-3.473 1.224-8.04 3.27-4.56 2.053-7.966 2.55-10.22 1.49-3.306-1.454-4.826-3.967-4.56-7.54.26-3.573 2.11-6.22 5.55-7.94 7.147-3.573 13.863-6.22 20.15-7.94 6.286-1.72 12.043-2.646 17.27-2.78 5.228-.133 11.113-.2 17.66-.2 6.554 0 13.6-.13 21.14-.39.268 0 .567.23.9.69.327.467.69 1.03 1.09 1.69.394.66.657 1.124.79 1.39.927 2.78.53 5.327-1.19 7.64-1.72 2.313-4.166 4-7.34 5.06-5.293 1.06-9 1.59-11.12 1.59-2.112 0-5.486.066-10.12.2-4.766 23.287-7.68 56.104-8.74 98.45 0 3.306-3.837 6.546-11.51 9.72z" xmlns:name="main_text"/><path d="M112.565 149.302h1.2l3.95-11.84h-1.78c-.88 2.681-1.9 5.69-2.83 8.49l-1.91-5.48h-1.36l-1.94 5.5-2.81-8.51h-1.76l3.949 11.84h1.19c.61-1.779 1.37-3.75 2.04-5.67l2.06 5.67zm8.17-5.099h5.33v-1.71h-5.33v-3.31h5.45v-1.7h-7.16v11.75h7.18v-1.7h-5.47v-3.33zm8.71-5.11h3.21c1.85 0 1.819 3.06-.03 3.06h-3.18v-3.06zm-1.68-1.61v11.75h5.31c2.25 0 3.41-1.78 3.41-3.55 0-1.11-.48-2.35-1.83-2.92 1.18-.84 1.33-2.19.86-3.35-.44-1.09-1.38-1.93-2.86-1.93h-4.89zm1.68 6.351h3.63c1.14 0 1.72.95 1.72 1.87s-.58 1.88-1.72 1.88h-3.63v-3.75zm14.52 3.7v-8.35h2.53c2.72 0 4.1 2.1 4.1 4.18 0 2.09-1.38 4.17-4.1 4.17h-2.53zm-1.69-10.05v11.75h4.22c3.84 0 5.78-2.92 5.78-5.87 0-2.94-1.94-5.88-5.78-5.88h-4.22zm13.38 6.72h5.319v-1.71h-5.32v-3.31h5.44v-1.7h-7.16v11.75h7.18v-1.7h-5.46v-3.33zm11.73 2.07l-3.5-8.812h-1.85l4.729 11.801h1.24l4.72-11.8h-1.81l-3.53 8.81zm8.34-2.07h5.32v-1.71h-5.32v-3.31h5.44v-1.7h-7.16v11.75h7.18v-1.7h-5.46v-3.33zm8.79-6.74h-1.7v11.77h7.23v-1.65h-5.53v-10.12zm17.16 5.89c0 1.22-.49 2.3-1.26 3.07-.811.81-1.9 1.298-3.08 1.298-1.17 0-2.25-.489-3.04-1.299-.79-.77-1.28-1.86-1.28-3.07s.49-2.31 1.28-3.08a4.23 4.23 0 0 1 3.04-1.29c1.18 0 2.27.48 3.08 1.29.77.77 1.26 1.85 1.26 3.08zm-10.39 0c0 1.68.689 3.188 1.77 4.3a5.927 5.927 0 0 0 4.28 1.8c1.68 0 3.2-.67 4.31-1.8 1.07-1.11 1.76-2.62 1.76-4.3s-.69-3.2-1.76-4.312a6.07 6.07 0 0 0-4.31-1.789c-1.66 0-3.19.68-4.28 1.79a6.183 6.183 0 0 0-1.77 4.31zm13.82-5.89v11.77h1.71v-3.92h2.59c2.54 0 3.82-1.95 3.82-3.91 0-1.97-1.28-3.94-3.82-3.94h-4.3zm1.71 6.168v-4.449h2.59c1.43 0 2.14 1.11 2.14 2.23 0 1.11-.71 2.22-2.14 2.22h-2.59zm9.73.571h5.33v-1.71h-5.33v-3.31h5.45v-1.7h-7.16v11.75h7.18v-1.7h-5.47v-3.33zm9.4-.13l4.289 5.16h2.2l-3.72-4.42c2.02-.35 3.05-1.93 3.05-3.6 0-1.86-1.28-3.75-3.84-3.75h-4.28v11.77h1.68v-10.05h2.6c1.43 0 2.14 1.02 2.14 2.03 0 1.03-.71 2.05-2.14 2.05h-1.978v.81z" xmlns:name="slogan_text"/><path d="M67 54.39c0-.112-.112-.112 0 0-.112-.112-.223-.224-.335-.224l-.112-.112-31.378-21.998c-.782-.558-1.675-.558-2.456 0L1.005 54.054l-.112.112c-.111 0-.111.112-.223.112-.112.111-.112.111-.222.223 0 .112-.113.112-.113.223-.112.112-.112.224-.112.335 0 .112 0 .112-.111.224 0 .223-.113.335-.113.558v37.743c0 .67.335 1.34.893 1.787l31.602 21.998s.112 0 .112.112l.112.112h.112c.335.112.558.223.893.223.224 0 .447 0 .559-.112.111 0 .111 0 .222-.112.113 0 .113 0 .223-.113l.112-.112s.113 0 .113-.112l31.49-22.334c.223-.22.446-.332.558-.555V54.389zM31.825 111.45L4.467 92.468V59.973l10.385 7.258 16.973 11.838v32.382zm2.122-36.18L14.963 62.094 6.03 55.841l27.917-19.43 27.805 19.43-27.805 19.43z" xmlns:name="symbol_mainfill"/></symbol><symbol id="right-arrow" viewBox="0 0 490.4 490.4"><g fill="#FFF"><path d="M245.2 490.4c135.2 0 245.2-110 245.2-245.2S380.4 0 245.2 0 0 110 0 245.2s110 245.2 245.2 245.2zm0-465.9c121.7 0 220.7 99 220.7 220.7s-99 220.7-220.7 220.7-220.7-99-220.7-220.7 99-220.7 220.7-220.7z"/><path d="M138.7 257.5h183.4l-48 48c-4.8 4.8-4.8 12.5 0 17.3 2.4 2.4 5.5 3.6 8.7 3.6s6.3-1.2 8.7-3.6l68.9-68.9c4.8-4.8 4.8-12.5 0-17.3l-68.9-68.9c-4.8-4.8-12.5-4.8-17.3 0s-4.8 12.5 0 17.3l48 48H138.7c-6.8 0-12.3 5.5-12.3 12.3 0 6.8 5.5 12.2 12.3 12.2z"/></g></symbol><symbol id="skype" viewBox="0 0 512 512"><circle cx="256" cy="256" r="256" fill="#65a2d9"/><path d="M346.281 165.443c-53.317-5.544-107.382-33.278-155.789 2.638-43.098 31.03-13.792 87.919-12.068 132.741 1.21 18.156-2.912 33.428-9.513 48.871l153.483 153.593c88.004-23.569 157.296-92.853 180.881-180.85L346.281 165.443z" fill="#3a7ca5"/><g fill="#fff"><path d="M390.711 278.349c-4.651-6.428-6.803-14.276-6.796-22.206v-.14c0-70.647-57.27-127.917-127.914-127.917-15.458 0-30.267 2.751-43.979 7.777-7.416 2.72-15.544 3.241-23.149 1.1a62.596 62.596 0 0 0-21.33-2.177c-31.229 2.15-56.37 27.743-57.99 59.006-.771 14.922 3.701 28.763 11.736 39.864 4.646 6.428 6.803 14.276 6.796 22.211v.14c0 70.644 57.266 127.914 127.914 127.914 15.458 0 30.267-2.748 43.979-7.777 7.416-2.72 15.544-3.241 23.149-1.1 6.716 1.895 13.895 2.691 21.33 2.181 31.229-2.148 56.37-27.743 57.99-59.004.771-14.927-3.701-28.769-11.736-39.872zm-130.027-45.282c25.791 6.135 64.765 15.405 64.765 58.337 0 21.147-10.416 37.283-29.327 45.428-13.495 5.811-28.77 6.596-41.934 6.596-40.45 0-65.993-31.451-67.065-32.79-6.625-8.307-5.261-20.414 3.048-27.039 8.309-6.625 20.416-5.261 27.039 3.048.057.069 15.336 17.618 36.976 18.303 26.057.824 32.011-6.928 32.782-13.545.941-8.083-6.249-14.015-35.192-20.901-24.535-5.832-61.611-14.651-61.611-54.189 0-12.314 5.008-52.488 69.448-52.488 40.691 0 64.712 32.035 65.715 33.399 6.292 8.563 4.455 20.604-4.108 26.898-8.523 6.266-20.49 4.475-26.808-3.984-.453-.581-14.202-15.879-34.799-17.834-15.582-1.481-30.968 4.141-30.968 12.441.004 8.794 4.422 11.752 32.039 18.32z"/><path d="M286.972 291.404c.86-7.377-5.063-12.962-28.098-19.115v32.716c22.1-.203 27.375-7.4 28.098-13.601z"/></g><path d="M390.711 278.349c-4.651-6.428-6.804-14.276-6.796-22.207v-.14c0-69.684-55.73-126.312-125.042-127.845v35.683c.253-.002.488-.014.743-.014 40.691 0 64.712 32.035 65.715 33.399 6.292 8.563 4.455 20.604-4.108 26.898-8.523 6.266-20.49 4.475-26.808-3.984-.453-.581-14.202-15.879-34.799-17.834-.248-.024-.495-.029-.743-.05v30.377c.596.143 1.191.288 1.81.434 25.791 6.135 64.765 15.403 64.765 58.337 0 21.147-10.416 37.283-29.327 45.428-11.921 5.134-25.231 6.344-37.248 6.556v40.464c14.417-.319 28.246-2.998 41.103-7.713 7.416-2.72 15.544-3.241 23.149-1.1 6.716 1.895 13.895 2.691 21.33 2.181 31.229-2.148 56.37-27.743 57.99-59.004.773-14.921-3.699-28.763-11.734-39.866z" fill="#d1d1d1"/><path d="M228.649 214.747c0 8.597 4.236 11.619 30.225 17.886v-30.377c-15.324-1.237-30.225 4.321-30.225 12.491z" fill="#fff"/></symbol><symbol id="telegram" viewBox="0 0 512 512"><circle cx="256" cy="256" r="256" fill="#7aa5da"/><path d="M511.924 250.077L398.283 136.625l-185.108 225.63 133.284 133.284C443.197 458.988 512 365.535 512 256c0-1.981-.031-3.955-.076-5.923z" fill="#5786b5"/><path d="M383.717 133.52c10.206-3.982 20.756 4.948 18.515 15.67l-45.77 218.781c-2.138 10.257-14.188 14.877-22.635 8.671l-69.094-50.717-35.219 35.961c-6.189 6.31-16.86 3.741-19.515-4.672l-25.41-80.662-68.112-20.118c-8.947-2.638-9.464-15.084-.793-18.48L383.717 133.52zm-33.599 48.545c2.982-2.638-.483-7.292-3.862-5.189l-147.015 91.177a6.681 6.681 0 0 0-2.862 7.671l20.049 88.04c.397 1.345 2.327 1.155 2.5-.241l4.482-67.094a6.634 6.634 0 0 1 2.207-4.275l124.501-110.089z" fill="#fff"/><path d="M346.257 176.876c3.379-2.103 6.844 2.551 3.862 5.189l-124.5 110.089a6.643 6.643 0 0 0-2.207 4.275l-4.482 67.094c-.172 1.396-2.103 1.586-2.5.241l-20.049-88.04a6.68 6.68 0 0 1 2.862-7.671l147.014-91.177z" fill="#9ec2e5"/><path d="M217.154 364.678c-3.241-1.155-5.982-3.741-7.154-7.465l-25.41-80.662-68.112-20.118c-8.947-2.638-9.464-15.084-.793-18.48L383.717 133.52c6.585-2.569 13.326.241 16.653 5.448a14.418 14.418 0 0 0-2.189-2.603L216.343 284.81v6.499l-1-.724 1 40.926v32.823c.259.121.534.224.81.31v.034h.001z" fill="#fff"/><g fill="#d1d1d1"><path d="M402.525 145.518a14.972 14.972 0 0 1-.293 3.672l-45.77 218.781c-2.138 10.257-14.188 14.877-22.635 8.671l-69.094-50.717-48.39-34.616v-6.499l181.838-148.446a14.377 14.377 0 0 1 2.189 2.603c.121.207.241.396.362.586.103.207.224.414.328.603.103.207.207.414.293.621.103.224.19.431.276.655.069.19.155.396.224.621.224.672.396 1.362.517 2.086.069.448.121.897.155 1.379z"/><path d="M264.733 325.925l-35.219 35.961c-.293.293-.603.586-.914.845-.31.259-.621.483-.948.707l-.017.017c-.655.431-1.327.793-2.034 1.086-.362.138-.707.276-1.069.362-1.5.448-3.034.569-4.551.414a12.614 12.614 0 0 1-1.172-.172c-.052 0-.103-.017-.155-.034a27.035 27.035 0 0 1-1.138-.328 1.535 1.535 0 0 1-.362-.138l-.81-33.133V291.31l48.389 34.615z"/></g><g fill="#dadde0"><path d="M228.6 362.73c-.31.259-.621.5-.948.724v-.017c.328-.224.638-.448.948-.707zM227.652 363.437v.017s0-.017-.017 0l.017-.017zM225.601 364.541a12.146 12.146 0 0 0 2.034-1.086c-.655.43-1.345.792-2.034 1.086zM219.981 365.316c1.517.155 3.051.034 4.551-.414a10.962 10.962 0 0 1-4.344.448.42.42 0 0 1-.207-.034z"/></g><g fill="#fff"><path d="M221.205 365.402zM219.981 365.316a.443.443 0 0 0 .207.034 6.736 6.736 0 0 1-1.034-.138c.275.053.551.087.827.104z"/></g><g fill="#dadde0"><path d="M219.981 365.316a6.843 6.843 0 0 1-.827-.103 1.969 1.969 0 0 1-.345-.069c.379.069.775.138 1.172.172zM217.516 364.782c.379.121.759.224 1.138.328l-.465-.103c-.069-.017-.138-.034-.19-.069a2.635 2.635 0 0 1-.483-.156z"/></g><g fill="#fff"><path d="M218.188 365.006l.465.103a2.219 2.219 0 0 1-.465-.103zM217.516 364.782c.155.069.328.121.483.155a4.527 4.527 0 0 1-.776-.241c.103.034.189.069.293.086z"/></g><path d="M217.516 364.782c-.103-.017-.19-.052-.293-.086-.017.017-.052 0-.069-.017v-.034c.12.068.241.102.362.137z" fill="#dadde0"/><path d="M216.343 331.511l.81 33.133a6.573 6.573 0 0 1-.81-.31v-32.823z" fill="#d1d1d1"/><path fill="#dadde0" d="M216.343 291.309v40.202l-1-40.926z"/><path d="M350.118 182.065l-124.5 110.089a6.643 6.643 0 0 0-2.207 4.275l-4.474 67.1c-.172 1.396-2.103 1.586-2.517.241l-20.04-88.045a6.68 6.68 0 0 1 2.862-7.671l147.015-91.177c3.379-2.104 6.844 2.551 3.861 5.188z" fill="#adbcc9"/></symbol><symbol id="twitter" viewBox="0 0 512 512"><circle cx="256" cy="256" r="256" fill="#65a2d9"/><path d="M393.014 139.326c-26.703 23.169-53.253 43.475-74.954 71.852-53.381 64.372-118.613 155.7-207.386 142.086l158.61 158.396c134.456-6.873 241.497-117.493 242.686-253.376L393.014 139.326z" fill="#3a7ca5"/><path d="M397.872 162.471a115.847 115.847 0 0 1-20.208 6.815 62.977 62.977 0 0 0 16.631-26.484c.926-2.893-2.219-5.398-4.832-3.848a116.572 116.572 0 0 1-30.894 12.762c-.628.16-1.276.24-1.929.24a8.195 8.195 0 0 1-5.411-2.065 63.176 63.176 0 0 0-41.805-15.777c-6.672 0-13.405 1.04-20.016 3.091-20.487 6.353-36.295 23.254-41.257 44.103-1.86 7.818-2.362 15.648-1.496 23.264a2.268 2.268 0 0 1-.569 1.772 2.35 2.35 0 0 1-1.969.781c-44.846-4.168-85.287-25.772-113.869-60.837-1.455-1.789-4.253-1.569-5.415.422-5.596 9.606-8.554 20.589-8.554 31.766a63.123 63.123 0 0 0 18.837 45.039 56.639 56.639 0 0 1-14.414-5.582c-2.188-1.214-4.877.35-4.908 2.851-.31 25.445 14.588 48.087 36.905 58.282a56.578 56.578 0 0 1-11.995-1.001c-2.463-.467-4.532 1.867-3.768 4.253 7.246 22.618 26.717 39.288 50.021 43.07-19.339 12.983-41.863 19.83-65.302 19.83l-7.306-.003c-2.255 0-4.16 1.469-4.73 3.65-.565 2.145.474 4.413 2.396 5.53 26.412 15.372 56.541 23.495 87.138 23.495 26.784 0 51.838-5.313 74.466-15.798 20.745-9.609 39.076-23.345 54.486-40.827 14.357-16.286 25.581-35.085 33.365-55.879 7.418-19.816 11.34-40.967 11.34-61.154v-.964c0-3.241 1.465-6.291 4.024-8.37a124.916 124.916 0 0 0 25.122-27.572c1.84-2.748-1.06-6.196-4.084-4.855z" fill="#fff"/><path d="M397.872 162.471a115.904 115.904 0 0 1-20.208 6.815 62.989 62.989 0 0 0 16.632-26.484c.926-2.893-2.219-5.398-4.832-3.848a116.572 116.572 0 0 1-30.894 12.762c-.628.16-1.276.24-1.929.24a8.195 8.195 0 0 1-5.411-2.065 63.176 63.176 0 0 0-41.805-15.777c-6.671 0-13.405 1.04-20.016 3.091-14.322 4.441-26.343 14.048-33.985 26.546v205.477a164.729 164.729 0 0 0 18.198-7.139c20.745-9.609 39.076-23.345 54.486-40.827 14.357-16.287 25.581-35.085 33.365-55.879 7.418-19.816 11.34-40.967 11.34-61.154v-.964c0-3.241 1.465-6.291 4.024-8.37a124.916 124.916 0 0 0 25.122-27.572c1.837-2.745-1.063-6.193-4.087-4.852z" fill="#d1d1d1"/></symbol><symbol id="viber" viewBox="0 0 512 512"><circle cx="256" cy="256" r="256" fill="#6f3faa"/><path d="M367.061 140.443c-62.312-15.05-124.735-32.654-188.637-10.288-41.374 15.515-41.374 60.337-39.65 98.263 0 10.343-12.067 24.135-6.896 36.202 10.343 34.478 18.963 68.956 55.165 86.195 5.172 3.448 0 10.343 3.448 15.515-1.724 0-5.172 1.724-5.172 3.448 0 8.263 3.708 20.902 1.245 29.05l110.006 109.96c113.09-18.01 201.478-110.068 213.914-224.921L367.061 140.443z" fill="#512d84"/><g fill="#fff"><path d="M391.427 179.924l-.084-.338c-6.84-27.653-37.678-57.325-65.998-63.498l-.319-.066c-45.806-8.738-92.251-8.738-138.047 0l-.329.066c-28.31 6.173-59.149 35.847-65.998 63.498l-.076.338c-8.456 38.617-8.456 77.781 0 116.398l.076.338c6.558 26.472 35.099 54.782 62.362 62.567v30.868c0 11.173 13.615 16.66 21.357 8.597l31.275-32.509c6.784.379 13.571.591 20.356.591 23.057 0 46.125-2.181 69.023-6.549l.319-.066c28.32-6.173 59.158-35.847 65.998-63.498l.084-.338c8.456-38.618 8.456-77.78.001-116.399zm-24.751 110.799c-4.567 18.041-27.981 40.469-46.585 44.613-24.355 4.632-48.904 6.611-73.428 5.932a1.732 1.732 0 0 0-1.296.526c-3.481 3.572-22.835 23.442-22.835 23.442l-24.288 24.928c-1.776 1.852-4.896.591-4.896-1.964v-51.136c0-.845-.603-1.562-1.433-1.726l-.014-.003c-18.604-4.144-42.01-26.572-46.585-44.613-7.611-34.906-7.611-70.292 0-105.198 4.575-18.041 27.981-40.469 46.585-44.613 42.536-8.09 85.664-8.09 128.191 0 18.613 4.144 42.018 26.572 46.585 44.613 7.619 34.907 7.619 70.293-.001 105.199z"/><path d="M296.47 314.327c-2.86-.869-5.585-1.452-8.118-2.501-26.231-10.883-50.371-24.923-69.492-46.444-10.874-12.238-19.385-26.055-26.579-40.677-3.412-6.934-6.287-14.139-9.218-21.299-2.672-6.528 1.264-13.272 5.408-18.192 3.889-4.617 8.894-8.149 14.314-10.754 4.23-2.032 8.402-.86 11.492 2.725 6.678 7.752 12.814 15.9 17.78 24.886 3.055 5.527 2.217 12.283-3.32 16.044-1.346.914-2.572 1.988-3.825 3.02-1.1.905-2.134 1.819-2.888 3.044-1.377 2.241-1.443 4.886-.557 7.323 6.827 18.761 18.334 33.351 37.219 41.21 3.022 1.257 6.056 2.72 9.538 2.315 5.83-.681 7.718-7.077 11.804-10.418 3.993-3.265 9.097-3.308 13.398-.586 4.303 2.724 8.473 5.646 12.619 8.601 4.07 2.9 8.121 5.735 11.874 9.042 3.61 3.179 4.853 7.349 2.82 11.662-3.72 7.901-9.135 14.472-16.944 18.668-2.205 1.182-4.839 1.565-7.325 2.331-2.86-.869 2.486-.766 0 0zM256.071 165.426c34.309.962 62.49 23.731 68.529 57.651 1.029 5.78 1.395 11.688 1.853 17.555.193 2.467-1.205 4.811-3.867 4.844-2.75.033-3.987-2.269-4.167-4.734-.353-4.882-.598-9.787-1.271-14.627-3.551-25.559-23.931-46.704-49.371-51.241-3.829-.683-7.745-.862-11.624-1.269-2.451-.257-5.661-.405-6.204-3.453-.455-2.555 1.701-4.589 4.134-4.72.659-.039 1.324-.008 1.988-.006 34.311.962-.664-.002 0 0z"/><path d="M308.212 233.019c-.057.429-.086 1.436-.338 2.384-.91 3.444-6.134 3.875-7.335.4-.357-1.031-.41-2.205-.412-3.315-.012-7.266-1.591-14.526-5.256-20.849-3.767-6.499-9.523-11.96-16.272-15.267-4.082-1.998-8.495-3.241-12.969-3.98-1.955-.324-3.931-.519-5.896-.793-2.381-.331-3.653-1.848-3.539-4.194.105-2.198 1.712-3.781 4.108-3.644 7.873.446 15.479 2.15 22.48 5.856 14.234 7.539 22.366 19.437 24.74 35.326.107.721.279 1.433.334 2.155.134 1.782.219 3.567.355 5.921-.057.427-.136-2.354 0 0z"/><path d="M286.872 232.188c-2.87.052-4.406-1.538-4.703-4.168-.205-1.834-.369-3.694-.807-5.48-.862-3.517-2.731-6.775-5.689-8.93-1.396-1.017-2.979-1.758-4.636-2.238-2.105-.609-4.293-.441-6.392-.955-2.281-.559-3.543-2.407-3.184-4.546.326-1.948 2.22-3.468 4.349-3.313 13.302.96 22.809 7.837 24.166 23.497.097 1.105.209 2.272-.036 3.331-.422 1.807-1.762 2.714-3.068 2.802-2.871.051 1.306-.088 0 0z"/></g><path d="M391.427 179.924l-.084-.338c-3.834-15.501-15.212-31.635-29.458-43.911l-19.259 17.068c11.452 9.125 21.264 21.766 24.052 32.78 7.62 34.907 7.62 70.292 0 105.2-4.567 18.041-27.982 40.469-46.585 44.613-24.355 4.632-48.904 6.611-73.428 5.932a1.732 1.732 0 0 0-1.296.526c-3.481 3.572-22.835 23.442-22.835 23.442l-24.288 24.928c-1.776 1.852-4.896.593-4.896-1.964v-51.136c0-.845-.603-1.562-1.433-1.726l-.014-.002c-10.573-2.355-22.692-10.618-32.028-20.621l-19.03 16.863c11.885 12.929 27.214 23.381 42.168 27.651v30.868c0 11.173 13.615 16.66 21.357 8.597l31.275-32.509c6.784.379 13.569.591 20.356.591 23.057 0 46.125-2.181 69.023-6.549l.319-.065c28.32-6.173 59.158-35.845 65.998-63.498l.084-.338c8.457-38.621 8.457-77.783.002-116.402z" fill="#d1d1d1"/><path d="M296.47 314.327c2.486-.766-2.86-.869 0 0z" fill="#fff"/><path d="M317.921 281.664c-3.753-3.305-7.806-6.142-11.874-9.042-4.146-2.955-8.316-5.877-12.619-8.601-4.301-2.722-9.404-2.679-13.398.586-4.086 3.341-5.973 9.737-11.804 10.418-3.481.405-6.516-1.059-9.538-2.315-11.619-4.834-20.435-12.226-27.098-21.559l-14.16 12.55c.481.557.94 1.129 1.429 1.679 19.122 21.521 43.263 35.561 69.492 46.444 2.531 1.05 5.258 1.634 8.118 2.501-2.86-.869 2.488-.765 0 0 2.488-.765 5.12-1.15 7.327-2.332 7.811-4.196 13.224-10.768 16.944-18.668 2.034-4.312.791-8.482-2.819-11.661z" fill="#d1d1d1"/><g fill="#fff"><path d="M256.159 165.431c-.029 0-.057-.003-.086-.003-.028-.002.008 0 .086.003zM256.072 165.426c.029 0 .057.003.086.003 1.904.068 32.872.921-.086-.003z"/></g><g fill="#d1d1d1"><path d="M305.285 185.837l-6.037 5.351c9.487 9.23 16.029 21.463 17.899 34.925.672 4.842.919 9.745 1.272 14.627.179 2.467 1.415 4.768 4.167 4.736 2.663-.033 4.06-2.376 3.867-4.844-.459-5.866-.824-11.776-1.853-17.555-2.643-14.848-9.53-27.559-19.315-37.24zM307.521 224.939c-1.729-11.578-6.532-21.026-14.51-28.224l-6.02 5.335c3.113 2.763 5.806 6.008 7.88 9.587 3.665 6.323 5.244 13.583 5.256 20.849.002 1.11.055 2.284.412 3.317 1.203 3.477 6.425 3.046 7.335-.4.252-.95.281-1.957.338-2.384-.057.429-.138-2.353 0 0-.138-2.353-.222-4.139-.357-5.923-.053-.725-.226-1.437-.334-2.157z"/></g><g fill="#fff"><path d="M308.212 233.019c-.136-2.354-.057.427 0 0zM286.872 232.188c.045-.003.088-.026.131-.031-.121 0-.307.003-.498.01.124.003.237.022.367.021z"/><path d="M286.872 232.188c-.129.002-.243-.017-.367-.021-.621.017-1.262.05.367.021zM287.003 232.157c-.045.005-.088.028-.131.031.336-.023.307-.031.131-.031z"/></g><path d="M280.814 207.525l-6.128 5.432c.338.205.669.419.99.652 2.958 2.155 4.827 5.413 5.689 8.93.438 1.786.6 3.644.807 5.48.283 2.513 1.71 4.058 4.336 4.148.191-.005.379-.009.498-.01 1.264-.14 2.531-1.026 2.936-2.774.245-1.057.133-2.226.036-3.331-.762-8.755-4.072-14.762-9.164-18.527z" fill="#d1d1d1"/></symbol></svg>