<svg xmlns="http://www.w3.org/2000/svg" style="display:none"><symbol id="logo" viewBox="0 0 290.29 67"><path d="M74.47 44.692c-.5-.121-.85-.27-1.08-.51-.24-.189-.39-.66-.51-1.391l-.23-2.799h-3.5v1.279c0 .74 0 1.52.04 2.369v3.851l1.32-.041c.58.041 1.13.08 1.56.15.42.08.81.16 1.24.24.43.07.85.15 1.32.189.43.08 1.01.119 1.67.119 1.32 0 2.57-.199 3.77-.549 1.2-.35 2.25-.811 3.15-1.471.89-.66 1.59-1.439 2.09-2.369.51-.941.78-1.98.78-3.15 0-.891-.11-1.711-.39-2.369-.27-.66-.7-1.32-1.28-1.941-.58-.618-1.36-1.249-2.25-1.868a98.125 98.125 0 0 0-3.34-2.101c-1.01-.62-1.83-1.16-2.45-1.59-.66-.431-1.13-.851-1.48-1.24s-.58-.78-.7-1.17a4.152 4.152 0 0 1-.19-1.24c0-.89.39-1.56 1.13-1.94.73-.35 1.55-.55 2.52-.55.82 0 1.63.12 2.49.35.42.12.77.31 1.01.51.19.19.35.62.39 1.28l.27 2.8h3.49v-1.29-2.33c-.03-.81-.03-1.63-.03-2.37v-1.4H85c-.15.04-.31.04-.5.04h-.51c-.19.04-.31.04-.35.04-.5-.04-.93-.11-1.36-.23-.42-.08-.89-.16-1.32-.27-.42-.08-.89-.16-1.4-.24-.5-.03-1.08-.07-1.71-.07-1.16 0-2.25.15-3.3.46-1.05.35-1.98.82-2.76 1.4-.81.58-1.43 1.32-1.9 2.14-.47.81-.7 1.75-.7 2.761 0 .93.16 1.75.47 2.479.31.739.77 1.399 1.36 1.989.58.621 1.32 1.201 2.21 1.782.89.59 1.91 1.25 3.03 1.909.97.539 1.79 1.049 2.41 1.469.62.432 1.13.861 1.52 1.281.35.43.62.9.77 1.33.12.459.2 1.01.2 1.59 0 .539-.12 1.01-.35 1.4-.24.389-.55.699-.93.93a4.43 4.43 0 0 1-1.33.5c-.5.119-1.04.16-1.59.16-.81.003-1.67-.118-2.49-.308zm31.55 2.289v-.699-.699c-.04-.191-.208-.5-.583.834l-4.117-1.645v-2.451c-.04-.93-.04-1.898-.04-2.879v-2.83-2.14-1.98-2.49c0-.89 0-1.78.04-2.681 0-.889 0-1.75.04-2.479l3.65.03c.51 0 .82.08 1.01.28.16.19.24.5.28.89l.23 3.5c.27.04.54.07.81.07h1.6c.27 0 .54-.03.81-.07v-1.359-2.491c-.04-.89-.04-1.75-.04-2.56v-1.44l-3.45.19-7.39.04-7.18-.04-3.46-.19v4c-.04.89-.04 1.75-.04 2.491v1.359c.27.04.58.07.85.07h1.64c.23 0 .46-.03.73-.07l.24-3.38c.08-.82.46-1.25 1.12-1.25l3.66-.07c.04.54.04 1.24.07 2.13V39.291c-.03 1.01-.03 2.02-.03 2.99-.04.971-.08 1.83-.12 2.49L92 44.96c-.04.201-.04.43-.04.66-.04.24-.04.471-.04.699 0 .271 0 .512.04.74 0 .23 0 .471.04.66h1.51c.66 0 1.32 0 2.02-.039H102.92c.97 0 1.98 0 3.06.039 6.332-.052 0-.466.04-.738zm26.31.862l4.89-14.111 5.011 14.111h3.928l8.039-23.08 2.182-.16c.039-.19.039-.39.039-.62v-.7-.74c0-.23 0-.46-.039-.66h-2.57c-.701.04-1.281.04-1.781.04-.35 0-.859 0-1.479-.04h-4c-.041.2-.041.43-.041.66v1.44c0 .23 0 .47.041.66l3.959.2-5.518 17.129-5.86-17.169 3.14-.16c.041-.19.041-.43.041-.66v-.7-.74c0-.23 0-.46-.041-.66h-3.529c-1.131.04-1.98.04-2.49.04-.35 0-.82 0-1.32-.04H131.712c-.04.2-.04.43-.04.66v1.44c0 .23 0 .47.04.66l2.399.12 1.641 4.66-4.39 13.09-6.1-17.71 3.41-.16c.04-.19.04-.43.04-.66v-.7-.74c0-.23 0-.46-.04-.66H125.022c-.58.04-1.09.04-1.51.04h-1.01c-.35 0-.82 0-1.32-.04h-3.23c-.04.2-.04.43-.04.66-.04.28-.04.51-.04.74 0 .27 0 .51.04.7 0 .23 0 .47.04.66l2.29.12 8.12 23.08h3.968zm33.948-3.692c-.809-.35-1.51-.818-2.059-1.398a5.737 5.737 0 0 1-1.201-2.021 7.753 7.753 0 0 1-.43-2.529h12.791v-.93c0-.9-.121-1.938-.32-3.069a10.071 10.071 0 0 0-1.16-3.26c-.58-1.051-1.4-1.91-2.451-2.61-1.049-.7-2.449-1.05-4.119-1.05-1.359 0-2.6.24-3.73.74a8.544 8.544 0 0 0-3.029 2.22c-.85.97-1.51 2.17-2.02 3.53-.5 1.401-.74 2.99-.74 4.74 0 1.52.24 2.84.699 4 .43 1.209 1.09 2.219 1.951 3.029a7.949 7.949 0 0 0 3.029 1.91c1.16.43 2.48.66 3.92.66.93 0 1.869-.119 2.76-.35s1.67-.51 2.33-.781c.82-.309 1.551-.66 2.25-1.09l-.77-2.52c-.9.5-1.83.811-2.76 1.01-.93.189-1.631.27-2.1.27-1.091-.001-2.021-.149-2.841-.501zm2.14-13.599c.43.27.82.66 1.09 1.12.27.511.5 1.05.621 1.71.119.661.189 1.362.189 2.1h-7.609c.119-1.049.27-1.9.539-2.6.279-.66.59-1.21.971-1.63.35-.39.779-.659 1.209-.86.43-.149.891-.229 1.361-.229.659 0 1.2.12 1.629.389zm15.85 1.051c.471-.281.971-.471 1.48-.66.5-.16.971-.24 1.48-.24.93 0 1.709.199 2.369.55.621.38 1.121.931 1.51 1.591.391.659.66 1.44.861 2.331.15.889.229 1.897.229 2.948 0 2.221-.43 3.93-1.318 5.211-.9 1.279-2.182 1.898-3.811 1.898-.43 0-.93-.068-1.51-.229-.59-.16-1.02-.352-1.33-.541v-2.1c0-.82 0-1.631.039-2.49v-2.41-5.859zm-1.709 16.039c1.25.311 2.57.471 4.01.471 1.359 0 2.68-.23 3.959-.74a9.224 9.224 0 0 0 3.301-2.141c.971-.969 1.711-2.17 2.291-3.609.59-1.439.859-3.15.859-5.051 0-1.169-.16-2.288-.471-3.419-.35-1.129-.811-2.1-1.439-2.989a7.378 7.378 0 0 0-2.33-2.101c-.93-.5-2.02-.779-3.221-.779-1.049 0-2.02.199-2.92.59-.93.42-1.709.891-2.369 1.391v-2.831c0-.97 0-1.87.039-2.76 0-.89 0-1.71.041-2.53v-2.09c-.311.04-.811.07-1.551.11s-1.48.12-2.289.16c-.82.08-1.561.15-2.301.19-.74.08-1.24.12-1.549.16-.041.19-.041.39-.041.58-.039.23-.039.47-.039.7s0 .47.039.66c0 .2 0 .39.041.58l2.988.43c.041.51.041 1.28.041 2.29V40.073c0 2.211 0 4.391-.041 6.451.741.457 1.712.848 2.952 1.118zm34.619-2.87c-.5-.041-1.049-.041-1.629-.08-.041-1.01-.041-1.98-.041-2.91V30.242v-.74-1.399c0-.51 0-1.09.041-1.67v-1.52h2.99c1.52 0 2.92.16 4.199.43 1.279.31 2.41.82 3.381 1.55.93.74 1.67 1.75 2.209 3.041.551 1.279.82 2.91.82 4.889 0 3.3-.82 5.79-2.41 7.46s-4.27 2.529-7.971 2.529c-.579 0-1.079 0-1.589-.04zm8.74 2.02c1.91-.74 3.5-1.709 4.74-2.959a11.558 11.558 0 0 0 2.68-4.352c.59-1.629.859-3.34.859-5.128 0-4.071-1.279-7.181-3.85-9.321-2.559-2.1-6.449-3.15-11.609-3.15-.98.04-1.99.04-3 .04h-4c-.43 0-.93 0-1.439-.04H207.197c-.039.2-.039.43-.039.66-.039.28-.039.51-.039.74 0 .27 0 .51.039.7 0 .23 0 .47.039.66h.621c.311.04.66.04 1.051.04.35.04.699.04 1.049.04.35.04.58.04.701.04.029.5.029 1.16.068 2.06v12.55c-.039 1.01-.039 2.02-.039 2.99a83.684 83.684 0 0 1-.109 2.52l-3.42.121c-.041.189-.041.43-.041.619-.039.24-.039.471-.039.699 0 .23 0 .471.039.701 0 .27 0 .51.041.699h1.318c.541 0 1.131 0 1.711-.039h2.76c1.24.039 2.41.08 3.529.119 1.09.08 1.951.111 2.531.111 2.72.001 5.05-.38 6.95-1.12zm19.51-2.641c-.82-.35-1.52-.818-2.059-1.398-.551-.59-.932-1.25-1.211-2.021a7.75 7.75 0 0 1-.42-2.529h12.779v-.93c0-.9-.119-1.938-.309-3.069a10.14 10.14 0 0 0-1.17-3.26c-.58-1.051-1.4-1.91-2.451-2.61-1.039-.7-2.439-1.05-4.109-1.05-1.359 0-2.609.24-3.73.74a8.37 8.37 0 0 0-3.029 2.22c-.861.97-1.521 2.17-2.021 3.53-.51 1.401-.738 2.99-.738 4.74 0 1.52.229 2.84.699 4a7.479 7.479 0 0 0 1.939 3.029c.82.82 1.83 1.48 3.031 1.91 1.17.43 2.49.66 3.92.66.939 0 1.869-.119 2.76-.35.9-.23 1.67-.51 2.33-.781.82-.309 1.559-.66 2.26-1.09l-.779-2.52c-.891.5-1.83.811-2.762 1.01-.93.189-1.629.27-2.1.27-1.08-.001-2.019-.149-2.83-.501zm2.131-13.599c.43.27.82.66 1.09 1.12.27.511.51 1.05.619 1.71.121.661.201 1.362.201 2.1h-7.621c.121-1.049.271-1.9.551-2.6.27-.66.58-1.21.971-1.63.35-.39.779-.659 1.199-.86a4.2 4.2 0 0 1 1.359-.229c.66 0 1.211.12 1.631.389zm20.01 11.961c-.621-1.43-1.16-2.75-1.631-3.92a56.34 56.34 0 0 1-1.24-3.229c-.35-.971-.658-1.821-.898-2.6-.23-.781-.42-1.511-.621-2.17l2.141-.08c.039-.201.039-.391.039-.621v-.699-.7c0-.24 0-.47-.039-.66h-3.26c-.551.04-1.01.04-1.4.04h-1.01c-.43 0-.859 0-1.279-.04h-2.41c-.041.19-.041.42-.041.66V29.854c0 .229 0 .459.041.66l2.369.149 6.721 17.219h3.729l6.182-17.289 2.439-.121c0-.189 0-.39.039-.619v-.701-.699c-.039-.2-.039-.43-.039-.62h-2.99c-.5.04-.971.04-1.359.04-.5 0-1.16 0-1.98-.04h-2.211c-.039.19-.039.42-.039.66V29.853c0 .229 0 .459.039.66l2.371.149-3.663 11.851z" xmlns:name="main_text"/><path fill="#79BD8F" d="M66.677 28.901a33.607 33.607 0 0 0-.673-3.503 33.314 33.314 0 0 0-3.826-9.197 33.75 33.75 0 0 0-2.446-3.502C53.589 4.97 44.117 0 33.5 0 22.883 0 13.41 4.97 7.269 12.7a33.408 33.408 0 0 0-2.446 3.503A33.286 33.286 0 0 0 .996 25.4a33.181 33.181 0 0 0-.672 3.502A33.445 33.445 0 0 0 0 33.5c0 1.56.116 3.095.324 4.599.164 1.188.387 2.357.672 3.503a33.31 33.31 0 0 0 3.827 9.197A33.681 33.681 0 0 0 7.268 54.3C13.411 62.03 22.883 67 33.5 67s20.09-4.97 26.232-12.7a33.616 33.616 0 0 0 2.446-3.502 33.321 33.321 0 0 0 3.826-9.198c.286-1.145.509-2.314.673-3.502.207-1.504.323-3.038.323-4.598s-.116-3.095-.323-4.599zM24.1 5.018c-1.735 2.042-3.256 4.644-4.507 7.681h-7.678A30.057 30.057 0 0 1 24.1 5.02zM9.015 16.201h9.318c-.877 2.813-1.54 5.904-1.956 9.198H4.622a29.88 29.88 0 0 1 4.393-9.198zM3.502 33.5c0-1.563.121-3.099.353-4.599h12.182c-.104 1.5-.162 3.035-.162 4.599s.058 3.097.162 4.599H3.855a30.083 30.083 0 0 1-.353-4.599zm5.513 17.298A29.884 29.884 0 0 1 4.622 41.6h11.754c.416 3.295 1.08 6.384 1.955 9.198H9.015zm2.9 3.503h7.678c1.25 3.037 2.774 5.639 4.508 7.68a30.06 30.06 0 0 1-12.186-7.68zm19.834 8.946c-3.21-.886-6.124-4.168-8.315-8.946h8.315v8.946zm0-12.449h-9.7c-.94-2.77-1.666-5.875-2.122-9.198H31.75v9.198zm0-17.298v4.599H19.551a60.577 60.577 0 0 1 0-9.198H31.75V33.5zm0-8.101H19.926c.457-3.323 1.183-6.429 2.123-9.198h9.701V25.4zm0-12.7h-8.315c2.192-4.78 5.105-8.06 8.315-8.947V12.7zm26.236 3.502a29.895 29.895 0 0 1 4.393 9.198H50.624c-.416-3.294-1.08-6.385-1.956-9.198h9.317zm-2.9-3.501h-7.678c-1.25-3.038-2.774-5.64-4.507-7.681a30.043 30.043 0 0 1 12.185 7.68zM35.251 3.752c3.211.888 6.124 4.167 8.315 8.947h-8.315V3.752zm0 12.45h9.7c.94 2.768 1.666 5.874 2.123 9.197H35.25v-9.198zm0 12.7h12.198a60.903 60.903 0 0 1 0 9.197H35.25V28.9zm0 12.698h11.823c-.456 3.324-1.182 6.429-2.123 9.199h-9.7v-9.2zm0 21.647v-8.946h8.315c-2.191 4.779-5.104 8.059-8.315 8.946zm7.65-1.265c1.732-2.042 3.255-4.644 4.506-7.681h7.678A30.075 30.075 0 0 1 42.9 61.98zm15.084-11.184h-9.318c.877-2.813 1.54-5.903 1.957-9.198h11.754a29.884 29.884 0 0 1-4.393 9.198zm5.16-12.7H50.962c.105-1.501.163-3.034.163-4.599 0-1.563-.058-3.097-.163-4.599h12.183a30.083 30.083 0 0 1 0 9.198z" xmlns:name="symbol_mainfill"/></symbol><symbol id="loupe" viewBox="0 0 512 512"><path d="M264.828 264.527c-2.919.192-5.86.3-8.828.3-2.967 0-5.909-.108-8.828-.3v35.611h17.655v-35.611z" fill="#464655"/><path d="M264.828 264.527c69.013-4.544 123.586-61.951 123.586-132.114C388.414 59.284 329.13 0 256 0S123.586 59.284 123.586 132.414c0 70.163 54.573 127.57 123.586 132.114 2.919.192 5.86.3 8.828.3 2.967 0 5.909-.109 8.828-.301zm-105.352-88.413c-.061-.134-.118-.267-.179-.401a105.108 105.108 0 0 1-5.64-15.889 105.476 105.476 0 0 1-3.259-19.022 107.1 107.1 0 0 1-.296-11.122c1.427-56.332 46.83-101.736 103.162-103.162.909-.023 1.821-.034 2.734-.034 58.504 0 105.931 47.427 105.931 105.931S314.504 238.345 256 238.345a106.47 106.47 0 0 1-16.132-1.22 106.156 106.156 0 0 1-5.777-1.053 105.119 105.119 0 0 1-20.653-6.631 105.323 105.323 0 0 1-7.694-3.754c-.237-.128-.473-.259-.71-.39a103.375 103.375 0 0 1-4.827-2.826 106.136 106.136 0 0 1-6.077-4.067c-14.941-10.771-26.966-25.337-34.654-42.29z" fill="#707384"/><g fill="#b9ebff"><path d="M234.091 236.071zM211.317 228.479zM223.31 233.196zM239.868 237.124zM150.399 140.802zM205.035 225.295zM159.476 176.114c7.688 16.953 19.713 31.519 34.656 42.29-14.943-10.771-26.968-25.337-34.656-42.29zM185.379 132.414c0 52.474 38.195 95.922 88.276 104.343-5.753.968-11.626 1.588-17.655 1.588 58.504 0 105.931-47.427 105.931-105.931S314.504 26.483 256 26.483c6.029 0 11.902.621 17.655 1.588-50.081 8.421-88.276 51.867-88.276 104.343zM317.793 92.69c0 17.064-13.833 30.897-30.897 30.897s-30.897-13.833-30.897-30.897 13.833-30.897 30.897-30.897 30.897 13.833 30.897 30.897zM200.209 222.471zM153.657 159.825zM159.297 175.713z"/></g><path d="M200.209 222.471a104.207 104.207 0 0 0 4.827 2.826l.71.39a106.878 106.878 0 0 0 7.694 3.754 105.11 105.11 0 0 0 21.711 6.848c1.561.312 3.134.594 4.719.836a106.656 106.656 0 0 0 16.13 1.219c6.029 0 11.902-.621 17.655-1.588-50.081-8.422-88.276-51.868-88.276-104.343s38.195-95.922 88.276-104.343c-5.753-.967-11.626-1.588-17.655-1.588-.914 0-1.825.011-2.734.034-56.332 1.427-101.736 46.83-103.162 103.162a108.125 108.125 0 0 0 .296 11.122 105.416 105.416 0 0 0 3.991 21.624 105.263 105.263 0 0 0 4.908 13.287c.06.134.118.267.179.401 7.688 16.953 19.713 31.519 34.656 42.29.449.323.902.642 1.355.959a104.397 104.397 0 0 0 4.72 3.11z" fill="#98d2eb"/><circle cx="286.897" cy="92.69" r="30.897" fill="#fff"/><g fill="#707384"><path d="M229.876 497.903zM230.1 313.365zM247.172 512zM241.329 301.149zM229.876 497.903c1.411 6.895 6.842 12.328 13.738 13.738a17.675 17.675 0 0 1-13.738-13.738zM256 317.793v176.552c0 8.217 5.64 15.062 13.241 17.031a19.256 19.256 0 0 1-3.101.558c9.135-.674 16.342-8.281 16.342-17.589V317.793c0-9.306-7.207-16.914-16.341-17.589 1.062.097 2.092.297 3.1.558-7.601 1.969-13.241 8.814-13.241 17.031zM243.614 300.497z"/></g><path d="M247.172 300.138c-1.218 0-2.409.124-3.559.359a17.61 17.61 0 0 0-2.285.652 17.677 17.677 0 0 0-10.901 11.075c-.125.374-.228.756-.328 1.14a17.639 17.639 0 0 0-.583 4.429v176.552c0 1.219.124 2.409.359 3.559 1.411 6.895 6.842 12.328 13.738 13.738 1.15.235 2.339.359 3.559.359h17.655c.444 0 .881-.026 1.313-.066a19.407 19.407 0 0 0 3.101-.558c-7.601-1.97-13.241-8.815-13.241-17.032V317.793c0-8.217 5.64-15.062 13.241-17.031a19.244 19.244 0 0 0-3.1-.558c-.433-.04-.87-.066-1.314-.066h-17.655z" fill="#5b5c6c"/></symbol><symbol id="rgb" viewBox="0 0 512 512"><path d="M196.862 196.758a158.294 158.294 0 0 1-1.495-9.816c-.039-.32-.073-.641-.11-.961a163.147 163.147 0 0 1-.47-4.72 164.075 164.075 0 0 1-.228-3.081c-.032-.491-.066-.982-.094-1.475a162.853 162.853 0 0 1-.14-3.142c-.017-.454-.039-.905-.052-1.359a162.708 162.708 0 0 1-.066-4.48c0-1.498.025-2.991.066-4.48.012-.455.035-.907.052-1.361.038-1.049.082-2.097.14-3.14.028-.493.062-.984.094-1.476a163.24 163.24 0 0 1 .347-4.427c.105-1.127.223-2.25.351-3.37.038-.321.072-.643.11-.964C200.585 105.233 223.192 67.32 256 41.953c-26.854-20.762-60.533-33.126-97.103-33.126C71.14 8.828 0 79.968 0 167.724c0 66.854 41.291 124.057 99.758 147.518 9.981-54.048 47.311-98.504 97.104-118.484z" fill="#ff5050"/><g fill="#5050ff"><path d="M512 167.724C512 79.968 440.86 8.828 353.103 8.828c-36.57 0-70.25 12.363-97.103 33.126-32.808 25.367-55.415 63.279-60.632 106.551 5.234-43.206 27.878-80.996 60.632-106.361 37.532 29.064 61.793 74.438 61.793 125.581 0 9.92-.924 19.619-2.669 29.028 49.801 19.978 87.135 64.436 97.117 118.489C470.709 291.782 512 234.578 512 167.724zM194.465 176.705zM194.786 181.261zM194.273 172.204zM195.257 185.981zM196.862 196.758c.004-.002.009-.003.013-.006-.6-3.238-1.109-6.507-1.508-9.811.398 3.306.898 6.578 1.495 9.817zM194.325 161.885zM194.558 157.267zM194.906 152.84zM194.207 167.724z"/></g><path d="M315.124 196.753l-.002.011c49.727 19.979 86.983 64.409 96.992 118.409-18.259 7.316-38.137 11.448-59.01 11.448-36.593 0-70.269-12.381-97.103-33.176-26.835 20.796-60.511 33.176-97.103 33.176-20.873 0-40.751-4.132-59.01-11.448 10.009-53.999 47.265-98.43 96.992-118.409l-.001-.008c-.006-.002-.01 0-.014.001-49.794 19.98-87.123 64.436-97.103 118.484a159.737 159.737 0 0 0-2.656 29.035c0 87.756 71.14 158.897 158.897 158.897S414.9 432.033 414.9 344.276c0-9.918-.917-19.619-2.655-29.034-9.985-54.054-47.32-98.512-97.121-118.489z" fill="#78ff78"/><path d="M194.906 152.84a155.847 155.847 0 0 0-.347 4.427c-.032.492-.066.983-.094 1.476a163.364 163.364 0 0 0-.14 3.14c-.017.454-.039.906-.052 1.361-.041 1.489-.066 2.982-.066 4.48s.025 2.991.066 4.48c.012.455.035.906.052 1.359.038 1.049.082 2.098.14 3.142.028.493.062.983.094 1.475a164.075 164.075 0 0 0 .347 4.428c.105 1.128.222 2.252.351 3.373.036.321.071.642.11.961a158.918 158.918 0 0 0 1.51 9.822c15.966-6.414 33.217-10.308 51.265-11.188l.099-.006c1.13-.054 2.264-.095 3.401-.126l.024-.001c.142-.003.284-.012.426-.015l.075-.001c1.273-.03 2.55-.047 3.831-.047s2.558.018 3.831.047c.175.004.35.013.525.018 1.137.031 2.271.072 3.401.126l.099.006c18.049.879 35.299 4.774 51.265 11.188l.001-.008a158.964 158.964 0 0 0 2.67-29.033c0-51.143-24.262-96.518-61.793-125.581-32.756 25.365-55.4 63.156-60.632 106.361-.039.321-.074.643-.11.964a171.035 171.035 0 0 0-.349 3.372z" fill="#ff78ff"/><g fill="#a0ffff"><path d="M252.169 185.427l-.075.001.071-.001h.004zM256 185.379zM263.857 185.576c18.009.898 35.2 4.86 51.154 11.251a158.034 158.034 0 0 1-1.164 5.656 157.334 157.334 0 0 1-2.52 9.795c-9.508 32.61-29.161 60.892-55.327 81.169 26.836 20.796 60.512 33.176 97.105 33.176 20.873 0 40.751-4.132 59.01-11.448-10.009-53.999-47.265-98.43-96.992-118.409-15.967-6.417-33.217-10.311-51.266-11.19zM248.22 185.571l.023-.001-.099.006.023-.001.053-.004zM260.356 185.444zM251.668 185.443l-.024.001h.001l.023-.001z"/></g><g fill="#ffff50"><path d="M311.327 212.276a158.451 158.451 0 0 1-8.999 23.617c-.087.182-.169.366-.256.548a158.37 158.37 0 0 1-6.048 11.366c-.313.532-.65 1.049-.969 1.578-1.707 2.846-3.526 5.615-5.402 8.342-.701 1.013-1.384 2.039-2.108 3.034a159.443 159.443 0 0 1-6.35 8.188c-1.221 1.471-2.5 2.892-3.774 4.318a160.794 160.794 0 0 1-20.664 19.417c-.258.203-.521.401-.78.601-30.205-23.401-51.785-57.375-59.06-96.408 15.977-6.421 33.198-10.403 51.251-11.303l-.023.001c-18.049.879-35.299 4.774-51.265 11.188-49.727 19.979-86.983 64.409-96.992 118.409 18.258 7.316 38.136 11.448 59.009 11.448 36.593 0 70.269-12.381 97.103-33.176 26.166-20.277 45.817-48.558 55.327-81.168zM256 185.379c-1.281 0-2.558.018-3.831.047h-.006c1.276-.03 2.555-.047 3.837-.047zM313.846 202.482zM251.645 185.444c-.001 0-.001 0 0 0a166.21 166.21 0 0 0-3.402.126l-.023.001c1.137-.056 2.28-.095 3.425-.127zM315.01 196.828z"/></g><path d="M248.22 185.571l-.053.003c-18.052.899-35.273 4.882-51.251 11.303 7.275 39.034 28.856 73.009 59.06 96.408.259-.202.522-.398.78-.601a161.005 161.005 0 0 0 20.664-19.417c1.273-1.426 2.552-2.847 3.774-4.318 2.2-2.66 4.324-5.386 6.35-8.188.724-.995 1.406-2.022 2.108-3.034 1.877-2.727 3.694-5.496 5.402-8.342.319-.529.657-1.045.969-1.578a158.772 158.772 0 0 0 6.048-11.366c.087-.182.17-.366.256-.548a158.755 158.755 0 0 0 8.999-23.617l.163-.561a157.536 157.536 0 0 0 2.593-10.308c.329-1.519.643-3.046.928-4.582-15.954-6.391-33.144-10.353-51.154-11.251l-.099-.006c-1.13-.055-2.264-.095-3.401-.126-.175-.004-.35-.013-.525-.018a157.355 157.355 0 0 0-7.739.001c-.142.003-.284.012-.426.015l-.023.001c-1.143.035-2.286.074-3.423.13z" fill="#fff"/></symbol><symbol id="tea-cup" viewBox="0 0 512 512"><path d="M415.701 78.102c-5.217 0-10.313.524-15.245 1.505l-3.468 37.456a43.123 43.123 0 0 1 18.714-4.249c23.924 0 43.39 19.466 43.39 43.39v78.102c0 23.924-19.466 43.39-43.39 43.39-12.791 0-24.305-5.568-32.253-14.403l-3.732 40.297a77.592 77.592 0 0 0 35.984 8.818c43.063 0 78.102-35.034 78.102-78.102v-78.102c0-43.068-35.039-78.102-78.102-78.102z" fill="#87b45f"/><g class="foo" fill="#a0c869"><path d="M75.892 498.534c-.027-.118-.065-.232-.09-.351.024.119.063.233.09.351zM76.509 500.599C78.958 507.305 85.37 512 92.794 512c-7.424 0-13.836-4.695-16.285-11.401zM194.894 477.288l2.141 19.273c.976 8.79 8.407 15.439 17.25 15.439h116.457c8.844 0 16.273-6.65 17.25-15.439l2.389-21.501a25.903 25.903 0 0 1-10.483 2.229H194.894v-.001z"/></g><path d="M197.036 496.561l-2.141-19.273H83.639c-1.883 0-3.716-.22-5.491-.603a25.75 25.75 0 0 1-4.992-1.626l2.389 21.501c.061.549.148 1.09.257 1.622.025.119.063.233.09.351.163.708.371 1.395.616 2.065C78.958 507.305 85.37 512 92.794 512h121.492c-8.843 0-16.274-6.65-17.25-15.439z" fill="#87b45f"/><g fill="#b4e173"><path d="M396.987 117.063l3.468-37.456 4.812-51.972c.943-10.174-7.064-18.956-17.281-18.956H138.006v205.586l1.524 16.463 19.712 9.856a8.678 8.678 0 0 1 4.797 7.761v55.384a8.679 8.679 0 0 1-8.678 8.678h-8.269l13.079 141.247c1.24 13.391 12.475 23.634 25.923 23.634h153.802c3.723 0 7.265-.809 10.483-2.229 8.407-3.708 14.543-11.722 15.439-21.405l13.895-150.066 3.732-40.297 13.542-146.228zM62.917 467.017zM18.314 24.017a17.387 17.387 0 0 0-.044 3.618l9.499 102.592L18.27 27.634a17.516 17.516 0 0 1 .044-3.617zM78.148 476.685a25.918 25.918 0 0 1-6.231-2.181c.402.204.824.373 1.239.555a25.75 25.75 0 0 0 4.992 1.626z"/></g><g fill="#a7d16c"><path d="M139.53 230.729l-1.524-16.465v15.702zM138.007 8.678h-.001z"/><path d="M78.148 476.685a26.06 26.06 0 0 0 5.491.603h102.456c-13.448 0-24.683-10.243-25.923-23.634l-13.079-141.247h-43.799a8.679 8.679 0 0 1-8.678-8.678v-55.383a8.675 8.675 0 0 1 4.797-7.761l21.237-10.619V8.678H35.552c-8.981 0-16.248 6.787-17.237 15.339a17.456 17.456 0 0 0-.044 3.618l9.499 102.593 29.947 323.428a25.94 25.94 0 0 0 5.201 13.363 26.115 26.115 0 0 0 8.738 7.339c.089.047.172.102.263.148a25.925 25.925 0 0 0 6.229 2.179z"/></g><path d="M125.447 227.568a8.68 8.68 0 0 1 7.761 0l4.797 2.398V8.678a8.679 8.679 0 0 0-17.356 0v221.288l4.798-2.398z" fill="#e4eaf6"/><path d="M133.208 227.568a8.68 8.68 0 0 0-7.761 0l-4.797 2.398-21.237 10.619a8.678 8.678 0 0 0-4.797 7.761v55.383a8.679 8.679 0 0 0 8.678 8.678h52.068a8.679 8.679 0 0 0 8.678-8.678v-55.383a8.675 8.675 0 0 0-4.797-7.761l-19.712-9.856-1.525-.763-4.798-2.398z" fill="#ffcd64"/></symbol></svg>