<svg xmlns="http://www.w3.org/2000/svg" style="display:none"><symbol id="logo" viewBox="0 0 290.29 67"><path d="M74.47 44.692c-.5-.121-.85-.27-1.08-.51-.24-.189-.39-.66-.51-1.391l-.23-2.799h-3.5v1.279c0 .74 0 1.52.04 2.369v3.851l1.32-.041c.58.041 1.13.08 1.56.15.42.08.81.16 1.24.24.43.07.85.15 1.32.189.43.08 1.01.119 1.67.119 1.32 0 2.57-.199 3.77-.549 1.2-.35 2.25-.811 3.15-1.471.89-.66 1.59-1.439 2.09-2.369.51-.941.78-1.98.78-3.15 0-.891-.11-1.711-.39-2.369-.27-.66-.7-1.32-1.28-1.941-.58-.618-1.36-1.249-2.25-1.868a98.125 98.125 0 0 0-3.34-2.101c-1.01-.62-1.83-1.16-2.45-1.59-.66-.431-1.13-.851-1.48-1.24s-.58-.78-.7-1.17a4.152 4.152 0 0 1-.19-1.24c0-.89.39-1.56 1.13-1.94.73-.35 1.55-.55 2.52-.55.82 0 1.63.12 2.49.35.42.12.77.31 1.01.51.19.19.35.62.39 1.28l.27 2.8h3.49v-1.29-2.33c-.03-.81-.03-1.63-.03-2.37v-1.4H85c-.15.04-.31.04-.5.04h-.51c-.19.04-.31.04-.35.04-.5-.04-.93-.11-1.36-.23-.42-.08-.89-.16-1.32-.27-.42-.08-.89-.16-1.4-.24-.5-.03-1.08-.07-1.71-.07-1.16 0-2.25.15-3.3.46-1.05.35-1.98.82-2.76 1.4-.81.58-1.43 1.32-1.9 2.14-.47.81-.7 1.75-.7 2.761 0 .93.16 1.75.47 2.479.31.739.77 1.399 1.36 1.989.58.621 1.32 1.201 2.21 1.782.89.59 1.91 1.25 3.03 1.909.97.539 1.79 1.049 2.41 1.469.62.432 1.13.861 1.52 1.281.35.43.62.9.77 1.33.12.459.2 1.01.2 1.59 0 .539-.12 1.01-.35 1.4-.24.389-.55.699-.93.93a4.43 4.43 0 0 1-1.33.5c-.5.119-1.04.16-1.59.16-.81.003-1.67-.118-2.49-.308zm31.55 2.289v-.699-.699c-.04-.191-.208-.5-.583.834l-4.117-1.645v-2.451c-.04-.93-.04-1.898-.04-2.879v-2.83-2.14-1.98-2.49c0-.89 0-1.78.04-2.681 0-.889 0-1.75.04-2.479l3.65.03c.51 0 .82.08 1.01.28.16.19.24.5.28.89l.23 3.5c.27.04.54.07.81.07h1.6c.27 0 .54-.03.81-.07v-1.359-2.491c-.04-.89-.04-1.75-.04-2.56v-1.44l-3.45.19-7.39.04-7.18-.04-3.46-.19v4c-.04.89-.04 1.75-.04 2.491v1.359c.27.04.58.07.85.07h1.64c.23 0 .46-.03.73-.07l.24-3.38c.08-.82.46-1.25 1.12-1.25l3.66-.07c.04.54.04 1.24.07 2.13V39.291c-.03 1.01-.03 2.02-.03 2.99-.04.971-.08 1.83-.12 2.49L92 44.96c-.04.201-.04.43-.04.66-.04.24-.04.471-.04.699 0 .271 0 .512.04.74 0 .23 0 .471.04.66h1.51c.66 0 1.32 0 2.02-.039H102.92c.97 0 1.98 0 3.06.039 6.332-.052 0-.466.04-.738zm26.31.862l4.89-14.111 5.011 14.111h3.928l8.039-23.08 2.182-.16c.039-.19.039-.39.039-.62v-.7-.74c0-.23 0-.46-.039-.66h-2.57c-.701.04-1.281.04-1.781.04-.35 0-.859 0-1.479-.04h-4c-.041.2-.041.43-.041.66v1.44c0 .23 0 .47.041.66l3.959.2-5.518 17.129-5.86-17.169 3.14-.16c.041-.19.041-.43.041-.66v-.7-.74c0-.23 0-.46-.041-.66h-3.529c-1.131.04-1.98.04-2.49.04-.35 0-.82 0-1.32-.04H131.712c-.04.2-.04.43-.04.66v1.44c0 .23 0 .47.04.66l2.399.12 1.641 4.66-4.39 13.09-6.1-17.71 3.41-.16c.04-.19.04-.43.04-.66v-.7-.74c0-.23 0-.46-.04-.66H125.022c-.58.04-1.09.04-1.51.04h-1.01c-.35 0-.82 0-1.32-.04h-3.23c-.04.2-.04.43-.04.66-.04.28-.04.51-.04.74 0 .27 0 .51.04.7 0 .23 0 .47.04.66l2.29.12 8.12 23.08h3.968zm33.948-3.692c-.809-.35-1.51-.818-2.059-1.398a5.737 5.737 0 0 1-1.201-2.021 7.753 7.753 0 0 1-.43-2.529h12.791v-.93c0-.9-.121-1.938-.32-3.069a10.071 10.071 0 0 0-1.16-3.26c-.58-1.051-1.4-1.91-2.451-2.61-1.049-.7-2.449-1.05-4.119-1.05-1.359 0-2.6.24-3.73.74a8.544 8.544 0 0 0-3.029 2.22c-.85.97-1.51 2.17-2.02 3.53-.5 1.401-.74 2.99-.74 4.74 0 1.52.24 2.84.699 4 .43 1.209 1.09 2.219 1.951 3.029a7.949 7.949 0 0 0 3.029 1.91c1.16.43 2.48.66 3.92.66.93 0 1.869-.119 2.76-.35s1.67-.51 2.33-.781c.82-.309 1.551-.66 2.25-1.09l-.77-2.52c-.9.5-1.83.811-2.76 1.01-.93.189-1.631.27-2.1.27-1.091-.001-2.021-.149-2.841-.501zm2.14-13.599c.43.27.82.66 1.09 1.12.27.511.5 1.05.621 1.71.119.661.189 1.362.189 2.1h-7.609c.119-1.049.27-1.9.539-2.6.279-.66.59-1.21.971-1.63.35-.39.779-.659 1.209-.86.43-.149.891-.229 1.361-.229.659 0 1.2.12 1.629.389zm15.85 1.051c.471-.281.971-.471 1.48-.66.5-.16.971-.24 1.48-.24.93 0 1.709.199 2.369.55.621.38 1.121.931 1.51 1.591.391.659.66 1.44.861 2.331.15.889.229 1.897.229 2.948 0 2.221-.43 3.93-1.318 5.211-.9 1.279-2.182 1.898-3.811 1.898-.43 0-.93-.068-1.51-.229-.59-.16-1.02-.352-1.33-.541v-2.1c0-.82 0-1.631.039-2.49v-2.41-5.859zm-1.709 16.039c1.25.311 2.57.471 4.01.471 1.359 0 2.68-.23 3.959-.74a9.224 9.224 0 0 0 3.301-2.141c.971-.969 1.711-2.17 2.291-3.609.59-1.439.859-3.15.859-5.051 0-1.169-.16-2.288-.471-3.419-.35-1.129-.811-2.1-1.439-2.989a7.378 7.378 0 0 0-2.33-2.101c-.93-.5-2.02-.779-3.221-.779-1.049 0-2.02.199-2.92.59-.93.42-1.709.891-2.369 1.391v-2.831c0-.97 0-1.87.039-2.76 0-.89 0-1.71.041-2.53v-2.09c-.311.04-.811.07-1.551.11s-1.48.12-2.289.16c-.82.08-1.561.15-2.301.19-.74.08-1.24.12-1.549.16-.041.19-.041.39-.041.58-.039.23-.039.47-.039.7s0 .47.039.66c0 .2 0 .39.041.58l2.988.43c.041.51.041 1.28.041 2.29V40.073c0 2.211 0 4.391-.041 6.451.741.457 1.712.848 2.952 1.118zm34.619-2.87c-.5-.041-1.049-.041-1.629-.08-.041-1.01-.041-1.98-.041-2.91V30.242v-.74-1.399c0-.51 0-1.09.041-1.67v-1.52h2.99c1.52 0 2.92.16 4.199.43 1.279.31 2.41.82 3.381 1.55.93.74 1.67 1.75 2.209 3.041.551 1.279.82 2.91.82 4.889 0 3.3-.82 5.79-2.41 7.46s-4.27 2.529-7.971 2.529c-.579 0-1.079 0-1.589-.04zm8.74 2.02c1.91-.74 3.5-1.709 4.74-2.959a11.558 11.558 0 0 0 2.68-4.352c.59-1.629.859-3.34.859-5.128 0-4.071-1.279-7.181-3.85-9.321-2.559-2.1-6.449-3.15-11.609-3.15-.98.04-1.99.04-3 .04h-4c-.43 0-.93 0-1.439-.04H207.197c-.039.2-.039.43-.039.66-.039.28-.039.51-.039.74 0 .27 0 .51.039.7 0 .23 0 .47.039.66h.621c.311.04.66.04 1.051.04.35.04.699.04 1.049.04.35.04.58.04.701.04.029.5.029 1.16.068 2.06v12.55c-.039 1.01-.039 2.02-.039 2.99a83.684 83.684 0 0 1-.109 2.52l-3.42.121c-.041.189-.041.43-.041.619-.039.24-.039.471-.039.699 0 .23 0 .471.039.701 0 .27 0 .51.041.699h1.318c.541 0 1.131 0 1.711-.039h2.76c1.24.039 2.41.08 3.529.119 1.09.08 1.951.111 2.531.111 2.72.001 5.05-.38 6.95-1.12zm19.51-2.641c-.82-.35-1.52-.818-2.059-1.398-.551-.59-.932-1.25-1.211-2.021a7.75 7.75 0 0 1-.42-2.529h12.779v-.93c0-.9-.119-1.938-.309-3.069a10.14 10.14 0 0 0-1.17-3.26c-.58-1.051-1.4-1.91-2.451-2.61-1.039-.7-2.439-1.05-4.109-1.05-1.359 0-2.609.24-3.73.74a8.37 8.37 0 0 0-3.029 2.22c-.861.97-1.521 2.17-2.021 3.53-.51 1.401-.738 2.99-.738 4.74 0 1.52.229 2.84.699 4a7.479 7.479 0 0 0 1.939 3.029c.82.82 1.83 1.48 3.031 1.91 1.17.43 2.49.66 3.92.66.939 0 1.869-.119 2.76-.35.9-.23 1.67-.51 2.33-.781.82-.309 1.559-.66 2.26-1.09l-.779-2.52c-.891.5-1.83.811-2.762 1.01-.93.189-1.629.27-2.1.27-1.08-.001-2.019-.149-2.83-.501zm2.131-13.599c.43.27.82.66 1.09 1.12.27.511.51 1.05.619 1.71.121.661.201 1.362.201 2.1h-7.621c.121-1.049.271-1.9.551-2.6.27-.66.58-1.21.971-1.63.35-.39.779-.659 1.199-.86a4.2 4.2 0 0 1 1.359-.229c.66 0 1.211.12 1.631.389zm20.01 11.961c-.621-1.43-1.16-2.75-1.631-3.92a56.34 56.34 0 0 1-1.24-3.229c-.35-.971-.658-1.821-.898-2.6-.23-.781-.42-1.511-.621-2.17l2.141-.08c.039-.201.039-.391.039-.621v-.699-.7c0-.24 0-.47-.039-.66h-3.26c-.551.04-1.01.04-1.4.04h-1.01c-.43 0-.859 0-1.279-.04h-2.41c-.041.19-.041.42-.041.66V29.854c0 .229 0 .459.041.66l2.369.149 6.721 17.219h3.729l6.182-17.289 2.439-.121c0-.189 0-.39.039-.619v-.701-.699c-.039-.2-.039-.43-.039-.62h-2.99c-.5.04-.971.04-1.359.04-.5 0-1.16 0-1.98-.04h-2.211c-.039.19-.039.42-.039.66V29.853c0 .229 0 .459.039.66l2.371.149-3.663 11.851z" xmlns:name="main_text"/><path fill="#79BD8F" d="M66.677 28.901a33.607 33.607 0 0 0-.673-3.503 33.314 33.314 0 0 0-3.826-9.197 33.75 33.75 0 0 0-2.446-3.502C53.589 4.97 44.117 0 33.5 0 22.883 0 13.41 4.97 7.269 12.7a33.408 33.408 0 0 0-2.446 3.503A33.286 33.286 0 0 0 .996 25.4a33.181 33.181 0 0 0-.672 3.502A33.445 33.445 0 0 0 0 33.5c0 1.56.116 3.095.324 4.599.164 1.188.387 2.357.672 3.503a33.31 33.31 0 0 0 3.827 9.197A33.681 33.681 0 0 0 7.268 54.3C13.411 62.03 22.883 67 33.5 67s20.09-4.97 26.232-12.7a33.616 33.616 0 0 0 2.446-3.502 33.321 33.321 0 0 0 3.826-9.198c.286-1.145.509-2.314.673-3.502.207-1.504.323-3.038.323-4.598s-.116-3.095-.323-4.599zM24.1 5.018c-1.735 2.042-3.256 4.644-4.507 7.681h-7.678A30.057 30.057 0 0 1 24.1 5.02zM9.015 16.201h9.318c-.877 2.813-1.54 5.904-1.956 9.198H4.622a29.88 29.88 0 0 1 4.393-9.198zM3.502 33.5c0-1.563.121-3.099.353-4.599h12.182c-.104 1.5-.162 3.035-.162 4.599s.058 3.097.162 4.599H3.855a30.083 30.083 0 0 1-.353-4.599zm5.513 17.298A29.884 29.884 0 0 1 4.622 41.6h11.754c.416 3.295 1.08 6.384 1.955 9.198H9.015zm2.9 3.503h7.678c1.25 3.037 2.774 5.639 4.508 7.68a30.06 30.06 0 0 1-12.186-7.68zm19.834 8.946c-3.21-.886-6.124-4.168-8.315-8.946h8.315v8.946zm0-12.449h-9.7c-.94-2.77-1.666-5.875-2.122-9.198H31.75v9.198zm0-17.298v4.599H19.551a60.577 60.577 0 0 1 0-9.198H31.75V33.5zm0-8.101H19.926c.457-3.323 1.183-6.429 2.123-9.198h9.701V25.4zm0-12.7h-8.315c2.192-4.78 5.105-8.06 8.315-8.947V12.7zm26.236 3.502a29.895 29.895 0 0 1 4.393 9.198H50.624c-.416-3.294-1.08-6.385-1.956-9.198h9.317zm-2.9-3.501h-7.678c-1.25-3.038-2.774-5.64-4.507-7.681a30.043 30.043 0 0 1 12.185 7.68zM35.251 3.752c3.211.888 6.124 4.167 8.315 8.947h-8.315V3.752zm0 12.45h9.7c.94 2.768 1.666 5.874 2.123 9.197H35.25v-9.198zm0 12.7h12.198a60.903 60.903 0 0 1 0 9.197H35.25V28.9zm0 12.698h11.823c-.456 3.324-1.182 6.429-2.123 9.199h-9.7v-9.2zm0 21.647v-8.946h8.315c-2.191 4.779-5.104 8.059-8.315 8.946zm7.65-1.265c1.732-2.042 3.255-4.644 4.506-7.681h7.678A30.075 30.075 0 0 1 42.9 61.98zm15.084-11.184h-9.318c.877-2.813 1.54-5.903 1.957-9.198h11.754a29.884 29.884 0 0 1-4.393 9.198zm5.16-12.7H50.962c.105-1.501.163-3.034.163-4.599 0-1.563-.058-3.097-.163-4.599h12.183a30.083 30.083 0 0 1 0 9.198z" xmlns:name="symbol_mainfill"/></symbol></svg>